<?xml version="1.0" encoding="UTF-8" standalone="no"?>
<!-- Created with Inkscape (http://www.inkscape.org/) -->

<svg
   width="64.02916mm"
   height="95.779167mm"
   viewBox="0 0 64.02916 95.779167"
   version="1.1"
   id="svg1"
   inkscape:version="1.3.2 (1:1.3.2+202311252150+091e20ef0f)"
   sodipodi:docname="UNO_clean_red_plusTwo.svg"
   xmlns:inkscape="http://www.inkscape.org/namespaces/inkscape"
   xmlns:sodipodi="http://sodipodi.sourceforge.net/DTD/sodipodi-0.dtd"
   xmlns="http://www.w3.org/2000/svg"
   xmlns:svg="http://www.w3.org/2000/svg"
   xmlns:rdf="http://www.w3.org/1999/02/22-rdf-syntax-ns#"
   xmlns:cc="http://creativecommons.org/ns#"
   xmlns:dc="http://purl.org/dc/elements/1.1/">
  <defs
     id="defs1" />
  <sodipodi:namedview
     id="base"
     pagecolor="#ffffff"
     bordercolor="#000000"
     borderopacity="0.3"
     inkscape:pageopacity="0.0"
     inkscape:pageshadow="2"
     inkscape:zoom="0.35"
     inkscape:cx="280"
     inkscape:cy="277.14286"
     inkscape:document-units="mm"
     inkscape:showpageshadow="2"
     inkscape:pagecheckerboard="0"
     inkscape:deskcolor="#d1d1d1"
     inkscape:window-width="2485"
     inkscape:window-height="1376"
     inkscape:window-x="75"
     inkscape:window-y="27"
     inkscape:window-maximized="1"
     inkscape:current-layer="svg1" />
  <metadata
     id="metadata1">
    <rdf:RDF>
      <cc:Work
         rdf:about="">
        <dc:format>image/svg+xml</dc:format>
        <dc:type
           rdf:resource="http://purl.org/dc/dcmitype/StillImage" />
      </cc:Work>
    </rdf:RDF>
  </metadata>
  <rect
     width="63.499996"
     height="95.25"
     rx="10.583333"
     ry="10.583333"
     x="0.2645835"
     y="0.2645835"
     id="rect2987-8-5-81-7-0-2"
     style="fill:#ffffff;fill-opacity:1;fill-rule:evenodd;stroke:#000000;stroke-width:0.529167;stroke-miterlimit:4;stroke-dasharray:none" />
  <rect
     width="52.916664"
     height="84.666664"
     rx="5.2916665"
     ry="5.2916665"
     x="5.5562515"
     y="5.5562553"
     id="rect3757-26-33-5-2-5-8"
     style="fill:#ff5555;fill-opacity:1;fill-rule:evenodd;stroke:none;stroke-width:1.05833" />
  <path
     d="m 47.889582,21.43123 c -23.380054,0 -42.333332,18.953274 -42.333332,42.333334 0,5.84501 4.738317,10.58333 10.583333,10.58333 23.380054,0 42.333332,-18.95328 42.333332,-42.33333 0,-5.84502 -4.738317,-10.583334 -10.583333,-10.583334 z"
     id="path3773-0-4-8-4-60-3-86-29-1-2"
     style="fill:#ffffff;fill-opacity:1;fill-rule:evenodd;stroke:none;stroke-width:1.05833" />
  <rect
     width="15.874999"
     height="24.76539"
     rx="2.6458333"
     ry="2.4847546"
     x="33.602139"
     y="41.550755"
     transform="matrix(1,0,-0.27472185,0.96152374,0,0)"
     id="rect6095-5-1-9"
     style="fill:#ffffff;fill-opacity:1;fill-rule:evenodd;stroke:#000000;stroke-width:0.53965;stroke-miterlimit:4;stroke-dasharray:none" />
  <rect
     width="10.583333"
     height="19.261961"
     rx="2.6458199"
     ry="2.4847422"
     x="36.247974"
     y="44.302525"
     transform="matrix(1,0,-0.27472185,0.96152374,0,0)"
     id="rect6097-3-5-4"
     style="fill:#ff5555;fill-opacity:1;fill-rule:evenodd;stroke:none;stroke-width:1.05833" />
  <rect
     width="15.874999"
     height="24.76539"
     rx="2.6458333"
     ry="2.4847546"
     x="41.917522"
     y="33.295635"
     transform="matrix(1,0,-0.27472185,0.96152374,0,0)"
     id="rect6095-1-9-4"
     style="fill:#ffffff;fill-opacity:1;fill-rule:evenodd;stroke:#000000;stroke-width:0.53965;stroke-miterlimit:4;stroke-dasharray:none" />
  <rect
     width="10.583333"
     height="19.261961"
     rx="2.6458199"
     ry="2.4847422"
     x="44.563358"
     y="36.047405"
     transform="matrix(1,0,-0.27472185,0.96152374,0,0)"
     id="rect6097-8-08-8"
     style="fill:#ff5555;fill-opacity:1;fill-rule:evenodd;stroke:none;stroke-width:1.05833" />
  <path
     d="m 9.260417,13.493709 v 2.645854 H 6.614583 v 2.645791 h 2.645834 v 2.645854 h 2.645833 v -2.645854 h 2.645833 V 16.139563 H 11.90625 v -2.645854 z"
     id="rect5649-4-2-7-6-2"
     style="fill:#ffffff;fill-opacity:1;fill-rule:evenodd;stroke:none;stroke-width:1.05833" />
  <path
     d="m 21.431249,8.2020626 c -2.931583,0 -5.291666,2.3600844 -5.291666,5.2916674 v 0.529166 h 2.645833 V 13.49373 c 0,-1.465792 1.180042,-2.645833 2.645833,-2.645833 1.465792,0 2.645834,1.180041 2.645834,2.645833 0,0.596635 -0.495046,1.767491 -1.01201,2.174356 -2.807124,2.209239 -2.77749,1.844379 -6.92549,4.70481 v 3.704167 h 5.291666 5.291667 V 21.43123 20.372896 h -2.645833 v 1.058334 h -2.645834 -2.116666 c 3.275573,-2.3065 3.515095,-2.250599 6.081755,-4.547521 0.822367,-0.735944 1.326578,-2.196603 1.326578,-3.389979 0,-2.931583 -2.360083,-5.2916674 -5.291667,-5.2916674 z"
     id="rect3163-52-9-8-1-1-2-7-3-6-0-9-5-9-2-20-7"
     style="fill:#ffffff;fill-opacity:1;stroke:none;stroke-width:1.05833" />
  <path
     d="m 54.768748,82.285534 v -2.64584 h 2.645834 v -2.64572 h -2.645834 v -2.64594 h -2.645833 v 2.64594 h -2.645833 v 2.64572 h 2.645833 v 2.64584 z"
     id="rect5649-4-2-7-0-2-2"
     style="fill:#ffffff;fill-opacity:1;fill-rule:evenodd;stroke:none;stroke-width:1.05833" />
  <path
     d="m 42.597915,87.577194 c 2.931584,0 5.291667,-2.36008 5.291667,-5.29166 v -0.52917 h -2.645833 v 0.52917 c 0,1.46579 -1.180042,2.64583 -2.645834,2.64583 -1.465791,0 -2.645833,-1.18004 -2.645833,-2.64583 0,-0.59658 0.495046,-1.76742 1.01201,-2.17435 2.807124,-2.20916 2.77749,-1.84436 6.92549,-4.70482 v -3.70417 h -5.291667 -5.291666 v 2.64584 1.05833 h 2.645833 v -1.05833 h 2.645833 2.116667 c -3.275573,2.30653 -3.515095,2.25065 -6.081755,4.54755 -0.822367,0.73597 -1.326578,2.19657 -1.326578,3.38995 0,2.93158 2.360083,5.29166 5.291666,5.29166 z"
     id="rect3163-52-9-8-1-1-2-7-3-6-0-9-5-9-2-2-8-5"
     style="fill:#ffffff;fill-opacity:1;stroke:none;stroke-width:1.05833" />
</svg>
