<?xml version="1.0" encoding="UTF-8" standalone="no"?>
<!-- Created with Inkscape (http://www.inkscape.org/) -->

<svg
   width="64.02916mm"
   height="95.779167mm"
   viewBox="0 0 64.02916 95.779167"
   version="1.1"
   id="svg1"
   inkscape:version="1.3.2 (1:1.3.2+202311252150+091e20ef0f)"
   sodipodi:docname="UNO_clean_red_five.svg"
   xmlns:inkscape="http://www.inkscape.org/namespaces/inkscape"
   xmlns:sodipodi="http://sodipodi.sourceforge.net/DTD/sodipodi-0.dtd"
   xmlns="http://www.w3.org/2000/svg"
   xmlns:svg="http://www.w3.org/2000/svg"
   xmlns:rdf="http://www.w3.org/1999/02/22-rdf-syntax-ns#"
   xmlns:cc="http://creativecommons.org/ns#"
   xmlns:dc="http://purl.org/dc/elements/1.1/">
  <defs
     id="defs1" />
  <sodipodi:namedview
     id="base"
     pagecolor="#ffffff"
     bordercolor="#000000"
     borderopacity="0.3"
     inkscape:pageopacity="0.0"
     inkscape:pageshadow="2"
     inkscape:zoom="0.35"
     inkscape:cx="277.14286"
     inkscape:cy="337.14286"
     inkscape:document-units="mm"
     inkscape:showpageshadow="2"
     inkscape:pagecheckerboard="0"
     inkscape:deskcolor="#d1d1d1"
     inkscape:window-width="2485"
     inkscape:window-height="1376"
     inkscape:window-x="75"
     inkscape:window-y="27"
     inkscape:window-maximized="1"
     inkscape:current-layer="svg1" />
  <metadata
     id="metadata1">
    <rdf:RDF>
      <cc:Work
         rdf:about="">
        <dc:format>image/svg+xml</dc:format>
        <dc:type
           rdf:resource="http://purl.org/dc/dcmitype/StillImage" />
      </cc:Work>
    </rdf:RDF>
  </metadata>
  <rect
     width="63.499996"
     height="95.25"
     rx="10.583333"
     ry="10.583333"
     x="0.2645835"
     y="0.2645835"
     id="rect2987-8-5-6"
     style="fill:#ffffff;fill-opacity:1;fill-rule:evenodd;stroke:#000000;stroke-width:0.529167;stroke-miterlimit:4;stroke-dasharray:none" />
  <rect
     width="52.916664"
     height="84.666664"
     rx="5.2916665"
     ry="5.2916665"
     x="5.5562515"
     y="5.5562477"
     id="rect3757-26-33-81"
     style="fill:#ff5555;fill-opacity:1;fill-rule:evenodd;stroke:none;stroke-width:1.05833" />
  <path
     d="m 47.889582,21.431236 c -23.380053,0 -42.3333318,18.953278 -42.3333318,42.333332 0,5.84502 4.7383168,10.58333 10.5833328,10.58333 23.380054,0 42.333332,-18.95328 42.333332,-42.333329 0,-5.845016 -4.738316,-10.583333 -10.583333,-10.583333 z"
     id="path3773-0-4-8-4-60-3-9"
     style="fill:#ffffff;fill-opacity:1;fill-rule:evenodd;stroke:none;stroke-width:1.05833" />
  <path
     d="m 22.489583,32.014569 v 10.583329 5.29167 h 10.583333 c 2.931584,0 5.291667,2.36008 5.291667,5.29167 0,2.93158 -2.360083,5.29166 -5.291667,5.29166 -2.931583,0 -5.291666,-2.36008 -5.291666,-5.29166 h -5.291667 c 0,5.86316 4.720167,10.58333 10.583333,10.58333 5.863167,0 10.583333,-4.72017 10.583333,-10.58333 0,-5.86317 -4.720166,-10.58334 -10.583333,-10.58334 H 27.78125 v -5.291662 h 5.291666 9.525 v -5.291667 h -9.525 -5.291666 z"
     id="rect3163-6-0-0-2-7-1-2-19-4"
     style="fill:#ff5555;fill-opacity:1;stroke:none;stroke-width:1.05833" />
  <path
     d="M 8.2020842,8.2020703 V 13.493736 16.13957 H 13.49375 c 1.465792,0 2.645833,1.180041 2.645833,2.645833 0,1.465792 -1.180041,2.645833 -2.645833,2.645833 -1.465791,0 -2.645833,-1.180041 -2.645833,-2.645833 H 8.2020842 c 0,2.931583 2.3600828,5.291666 5.2916658,5.291666 2.931583,0 5.291667,-2.360083 5.291667,-5.291666 0,-2.931583 -2.360084,-5.291667 -5.291667,-5.291667 h -2.645833 v -2.645833 h 2.645833 4.7625 V 8.2020703 h -4.7625 -2.645833 z"
     id="rect3163-6-0-0-2-7-1-2-19-2-4"
     style="fill:#ffffff;fill-opacity:1;stroke:none;stroke-width:1.05833" />
  <path
     d="m 55.827082,87.577068 v -5.29167 -2.64583 h -5.291666 c -1.465792,0 -2.645834,-1.18004 -2.645834,-2.64583 0,-1.4658 1.180042,-2.64584 2.645834,-2.64584 1.465791,0 2.645833,1.18004 2.645833,2.64584 h 2.645833 c 0,-2.93159 -2.360083,-5.29167 -5.291666,-5.29167 -2.931583,0 -5.291667,2.36008 -5.291667,5.29167 0,2.93158 2.360084,5.29166 5.291667,5.29166 h 2.645833 v 2.64584 h -2.645833 -4.7625 v 2.64583 h 4.7625 2.645833 z"
     id="rect3163-6-0-0-2-7-1-2-19-2-4-6"
     style="fill:#ffffff;fill-opacity:1;stroke:none;stroke-width:1.05833" />
</svg>
