<?xml version="1.0" encoding="UTF-8" standalone="no"?>
<!-- Created with Inkscape (http://www.inkscape.org/) -->

<svg
   width="64.02916mm"
   height="95.779167mm"
   viewBox="0 0 64.02916 95.779167"
   version="1.1"
   id="svg1"
   inkscape:version="1.3.2 (1:1.3.2+202311252150+091e20ef0f)"
   sodipodi:docname="UNO_clean_plusFour.svg"
   xmlns:inkscape="http://www.inkscape.org/namespaces/inkscape"
   xmlns:sodipodi="http://sodipodi.sourceforge.net/DTD/sodipodi-0.dtd"
   xmlns="http://www.w3.org/2000/svg"
   xmlns:svg="http://www.w3.org/2000/svg"
   xmlns:rdf="http://www.w3.org/1999/02/22-rdf-syntax-ns#"
   xmlns:cc="http://creativecommons.org/ns#"
   xmlns:dc="http://purl.org/dc/elements/1.1/">
  <defs
     id="defs1" />
  <sodipodi:namedview
     id="base"
     pagecolor="#ffffff"
     bordercolor="#000000"
     borderopacity="0.3"
     inkscape:pageopacity="0.0"
     inkscape:pageshadow="2"
     inkscape:zoom="0.35"
     inkscape:cx="322.85714"
     inkscape:cy="331.42857"
     inkscape:document-units="mm"
     inkscape:showpageshadow="2"
     inkscape:pagecheckerboard="0"
     inkscape:deskcolor="#d1d1d1"
     inkscape:window-width="2485"
     inkscape:window-height="1376"
     inkscape:window-x="75"
     inkscape:window-y="27"
     inkscape:window-maximized="1"
     inkscape:current-layer="svg1" />
  <metadata
     id="metadata1">
    <rdf:RDF>
      <cc:Work
         rdf:about="">
        <dc:format>image/svg+xml</dc:format>
        <dc:type
           rdf:resource="http://purl.org/dc/dcmitype/StillImage" />
      </cc:Work>
    </rdf:RDF>
  </metadata>
  <rect
     width="63.499996"
     height="95.25"
     rx="10.583333"
     ry="10.583333"
     x="0.2645835"
     y="0.2645835"
     id="rect2987-8-5-81-2-1"
     style="fill:#ffffff;fill-opacity:1;fill-rule:evenodd;stroke:#000000;stroke-width:0.529167;stroke-miterlimit:4;stroke-dasharray:none" />
  <rect
     width="52.916664"
     height="84.666664"
     rx="5.2916665"
     ry="5.2916665"
     x="5.5562496"
     y="5.5562515"
     id="rect3757-26-33-5-9-9"
     style="fill:#000000;fill-opacity:1;fill-rule:evenodd;stroke:none;stroke-width:1.05833" />
  <path
     d="m 47.889581,21.431248 c -23.380053,0 -42.3333313,18.953283 -42.3333313,42.333333 0,5.84501 4.7383163,10.58333 10.5833323,10.58333 23.380054,0 42.333332,-18.95328 42.333332,-42.33333 0,-5.845016 -4.738316,-10.583333 -10.583333,-10.583333 z"
     id="path3773-0-4-8-4-60-3-86-5-6"
     style="fill:#ffffff;fill-opacity:1;fill-rule:evenodd;stroke:none;stroke-width:1.05833" />
  <path
     d="m 21.325416,8.202071 -5.185834,10.583333 v 2.645844 h 6.35 v 2.645844 h 2.645834 v -2.645844 h 1.587499 v -2.645844 h -1.587499 v -5.291656 h -2.645834 v 5.291656 H 18.891249 L 24.077082,8.202071 Z"
     id="rect3980-7-6-2-9-5-60-5-3-1-5"
     style="fill:#ffffff;fill-opacity:1;stroke:none;stroke-width:1.05833" />
  <path
     d="m 9.2604157,13.493727 v 2.645854 h -2.645833 v 2.645791 h 2.645833 v 2.645855 h 2.6458333 v -2.645855 h 2.645834 v -2.645791 h -2.645834 v -2.645854 z"
     id="rect5649-4"
     style="fill:#ffffff;fill-opacity:1;fill-rule:evenodd;stroke:none;stroke-width:1.05833" />
  <path
     d="m 42.703748,87.577091 5.185833,-10.58333 v -2.64585 h -6.349999 v -2.64584 h -2.645834 v 2.64584 h -1.587499 v 2.64585 h 1.587499 v 5.29165 h 2.645834 v -5.29165 h 3.598333 l -5.185833,10.58333 z"
     id="rect3980-7-6-2-9-5-60-5-3-1-8-9"
     style="fill:#ffffff;fill-opacity:1;stroke:none;stroke-width:1.05833" />
  <path
     d="m 54.768748,82.285431 v -2.64585 h 2.645833 v -2.64579 h -2.645833 v -2.64586 h -2.645833 v 2.64586 h -2.645834 v 2.64579 h 2.645834 v 2.64585 z"
     id="rect5649-1-1"
     style="fill:#ffffff;fill-opacity:1;fill-rule:evenodd;stroke:none;stroke-width:1.05833" />
  <g
     transform="matrix(1.0583333,0,0,1.0583333,-698.2354,-277.40207)"
     id="g6111-38-2">
    <rect
       width="15"
       height="23.40037"
       rx="2.5"
       ry="2.3477995"
       x="762.46088"
       y="306.66135"
       transform="matrix(1,0,-0.27472185,0.96152374,0,0)"
       id="rect6095-2-9"
       style="fill:#ffffff;fill-opacity:1;fill-rule:evenodd;stroke:#000000;stroke-width:0.509906;stroke-miterlimit:4;stroke-dasharray:none" />
    <rect
       width="10"
       height="18.200279"
       rx="2.4999874"
       ry="2.3477879"
       x="764.96088"
       y="309.26141"
       transform="matrix(1,0,-0.27472185,0.96152374,0,0)"
       id="rect6097-5-7"
       style="fill:#ff5555;fill-opacity:1;fill-rule:evenodd;stroke:none" />
  </g>
  <g
     transform="matrix(1.0583333,0,0,1.0583333,-687.65208,-285.33957)"
     id="g6111-62-2-1">
    <rect
       width="15"
       height="23.40037"
       rx="2.5"
       ry="2.3477995"
       x="762.46088"
       y="306.66135"
       transform="matrix(1,0,-0.27472185,0.96152374,0,0)"
       id="rect6095-14-0-3"
       style="fill:#ffffff;fill-opacity:1;fill-rule:evenodd;stroke:#000000;stroke-width:0.509906;stroke-miterlimit:4;stroke-dasharray:none" />
    <rect
       width="10"
       height="18.200279"
       rx="2.4999874"
       ry="2.3477879"
       x="764.96088"
       y="309.26141"
       transform="matrix(1,0,-0.27472185,0.96152374,0,0)"
       id="rect6097-6-3-2"
       style="fill:#5555ff;fill-opacity:1;fill-rule:evenodd;stroke:none" />
  </g>
  <g
     transform="matrix(1.0583333,0,0,1.0583333,-690.2979,-269.46457)"
     id="g6111-3-5">
    <rect
       width="15"
       height="23.40037"
       rx="2.5"
       ry="2.3477995"
       x="762.46088"
       y="306.66135"
       transform="matrix(1,0,-0.27472185,0.96152374,0,0)"
       id="rect6095-0-3"
       style="fill:#ffffff;fill-opacity:1;fill-rule:evenodd;stroke:#000000;stroke-width:0.509906;stroke-miterlimit:4;stroke-dasharray:none" />
    <rect
       width="10"
       height="18.200279"
       rx="2.4999874"
       ry="2.3477879"
       x="764.96088"
       y="309.26141"
       transform="matrix(1,0,-0.27472185,0.96152374,0,0)"
       id="rect6097-7-4"
       style="fill:#ffaa00;fill-opacity:1;fill-rule:evenodd;stroke:none" />
  </g>
  <g
     transform="matrix(1.0583333,0,0,1.0583333,-679.71458,-277.40206)"
     id="g6111-62-7-3">
    <rect
       width="15"
       height="23.40037"
       rx="2.5"
       ry="2.3477995"
       x="762.46088"
       y="306.66135"
       transform="matrix(1,0,-0.27472185,0.96152374,0,0)"
       id="rect6095-14-8-2"
       style="fill:#ffffff;fill-opacity:1;fill-rule:evenodd;stroke:#000000;stroke-width:0.509906;stroke-miterlimit:4;stroke-dasharray:none" />
    <rect
       width="10"
       height="18.200279"
       rx="2.4999874"
       ry="2.3477879"
       x="764.96088"
       y="309.26141"
       transform="matrix(1,0,-0.27472185,0.96152374,0,0)"
       id="rect6097-6-7-1"
       style="fill:#55aa55;fill-opacity:1;fill-rule:evenodd;stroke:none" />
  </g>
</svg>
