<?xml version="1.0" encoding="UTF-8" standalone="no"?>
<!-- Created with Inkscape (http://www.inkscape.org/) -->

<svg
   width="64.02916mm"
   height="95.779167mm"
   viewBox="0 0 64.02916 95.779167"
   version="1.1"
   id="svg1"
   inkscape:version="1.3.2 (1:1.3.2+202311252150+091e20ef0f)"
   sodipodi:docname="UNO_clean_red_three.svg"
   xmlns:inkscape="http://www.inkscape.org/namespaces/inkscape"
   xmlns:sodipodi="http://sodipodi.sourceforge.net/DTD/sodipodi-0.dtd"
   xmlns="http://www.w3.org/2000/svg"
   xmlns:svg="http://www.w3.org/2000/svg"
   xmlns:rdf="http://www.w3.org/1999/02/22-rdf-syntax-ns#"
   xmlns:cc="http://creativecommons.org/ns#"
   xmlns:dc="http://purl.org/dc/elements/1.1/">
  <defs
     id="defs1" />
  <sodipodi:namedview
     id="base"
     pagecolor="#ffffff"
     bordercolor="#000000"
     borderopacity="0.3"
     inkscape:pageopacity="0.0"
     inkscape:pageshadow="2"
     inkscape:zoom="0.35"
     inkscape:cx="334.28571"
     inkscape:cy="394.28571"
     inkscape:document-units="mm"
     inkscape:showpageshadow="2"
     inkscape:pagecheckerboard="0"
     inkscape:deskcolor="#d1d1d1"
     inkscape:window-width="2485"
     inkscape:window-height="1376"
     inkscape:window-x="75"
     inkscape:window-y="27"
     inkscape:window-maximized="1"
     inkscape:current-layer="svg1" />
  <metadata
     id="metadata1">
    <rdf:RDF>
      <cc:Work
         rdf:about="">
        <dc:format>image/svg+xml</dc:format>
        <dc:type
           rdf:resource="http://purl.org/dc/dcmitype/StillImage" />
      </cc:Work>
    </rdf:RDF>
  </metadata>
  <rect
     width="63.499996"
     height="95.25"
     rx="10.583333"
     ry="10.583333"
     x="0.2645835"
     y="0.2645835"
     id="rect2987-8-5"
     style="fill:#ffffff;fill-opacity:1;fill-rule:evenodd;stroke:#000000;stroke-width:0.529167;stroke-miterlimit:4;stroke-dasharray:none" />
  <rect
     width="52.916664"
     height="84.666664"
     rx="5.2916665"
     ry="5.2916665"
     x="5.5562496"
     y="5.5562515"
     id="rect3757-26-33"
     style="fill:#ff5555;fill-opacity:1;fill-rule:evenodd;stroke:none;stroke-width:1.05833" />
  <path
     d="m 47.889582,21.431236 c -23.380053,0 -42.3333324,18.953278 -42.3333324,42.333332 0,5.84502 4.7383174,10.58333 10.5833334,10.58333 23.380054,0 42.333332,-18.953275 42.333332,-42.333329 0,-5.845016 -4.738316,-10.583333 -10.583333,-10.583333 z"
     id="path3773-0-4-8-4-60-3"
     style="fill:#ffffff;fill-opacity:1;fill-rule:evenodd;stroke:none;stroke-width:1.05833" />
  <path
     d="m 32.014583,32.014569 c -4.383765,0 -7.9375,3.553735 -7.9375,7.9375 h 5.291667 c 0,-1.461251 1.184582,-2.645833 2.645833,-2.645833 1.461251,0 2.645833,1.184582 2.645833,2.645833 0,1.461251 -1.184582,2.645833 -2.645833,2.645833 h -3.175 v 5.291667 h 3.175 c 2.931583,0 5.291666,2.360083 5.291666,5.291666 0,2.931583 -2.360083,5.291663 -5.291666,5.291663 -2.931583,0 -5.291667,-2.36008 -5.291667,-5.291663 H 21.43125 c 0,5.863163 4.720167,10.583333 10.583333,10.583333 5.863166,0 10.583333,-4.72017 10.583333,-10.583333 0,-3.486086 -1.680972,-6.540616 -4.266406,-8.466666 1.00747,-1.330727 1.620573,-2.96473 1.620573,-4.7625 0,-4.383765 -3.553735,-7.9375 -7.9375,-7.9375 z"
     id="rect3163-52-9-8-1-1-2-7-3-6-4-6-1-8-7-0-1"
     style="fill:#ff5555;fill-opacity:1;stroke:none;stroke-width:1.05833" />
  <path
     d="m 13.49375,8.2020695 c -2.191882,0 -3.9687504,1.776867 -3.9687504,3.9687505 h 2.6458344 c 0,-0.730631 0.592296,-1.322917 1.322916,-1.322917 0.730621,0 1.322917,0.592286 1.322917,1.322917 0,0.73062 -0.592296,1.322916 -1.322917,1.322916 h -1.5875 v 2.645823 h 1.5875 c 1.465792,0 2.645833,1.180042 2.645833,2.645844 0,1.465792 -1.180041,2.645833 -2.645833,2.645833 -1.465791,0 -2.645833,-1.180041 -2.645833,-2.645833 H 8.2020836 c 0,2.931583 2.3600834,5.291666 5.2916664,5.291666 2.931583,0 5.291667,-2.360083 5.291667,-5.291666 0,-1.743043 -0.840486,-3.270313 -2.133209,-4.233333 0.503746,-0.665374 0.810292,-1.482365 0.810292,-2.38125 0,-2.1918835 -1.776867,-3.9687505 -3.96875,-3.9687505 z"
     id="rect3163-52-9-8-1-1-2-7-3-6-4-6-1-8-7-0-6-2"
     style="fill:#ffffff;fill-opacity:1;stroke:none;stroke-width:1.05833" />
  <path
     d="m 50.535416,87.577068 c 2.191882,0 3.96875,-1.77687 3.96875,-3.96875 h -2.645834 c 0,0.73063 -0.592296,1.32292 -1.322916,1.32292 -0.730621,0 -1.322917,-0.59229 -1.322917,-1.32292 0,-0.73062 0.592296,-1.32292 1.322917,-1.32292 h 1.5875 v -2.64582 h -1.5875 c -1.465792,0 -2.645834,-1.18004 -2.645834,-2.64584 0,-1.4658 1.180042,-2.64584 2.645834,-2.64584 1.465791,0 2.645833,1.18004 2.645833,2.64584 h 2.645833 c 0,-2.93159 -2.360083,-5.29167 -5.291666,-5.29167 -2.931583,0 -5.291667,2.36008 -5.291667,5.29167 0,1.74304 0.840486,3.27031 2.133209,4.23333 -0.503746,0.66537 -0.810292,1.48236 -0.810292,2.38125 0,2.19188 1.776867,3.96875 3.96875,3.96875 z"
     id="rect3163-52-9-8-1-1-2-7-3-6-4-6-1-8-7-0-6-2-6"
     style="fill:#ffffff;fill-opacity:1;stroke:none;stroke-width:1.05833" />
</svg>
