<svg
   width="60.5mm"
   height="90.5mm"
   viewBox="0 0 60.5 90.5"
   version="1.1"
   xmlns="http://www.w3.org/2000/svg"
   xmlns:svg="http://www.w3.org/2000/svg">
  <rect
     width="60"
     height="90"
     rx="10"
     ry="10"
     x="0.24999949"
     y="0.24999949"
     id="rect2987-35"
     style="display:inline;fill:#ffffff;fill-opacity:1;fill-rule:evenodd;stroke:#000000;stroke-width:0.499999;stroke-miterlimit:4;stroke-dasharray:none" />
  <rect
     width="50"
     height="80"
     rx="5"
     ry="5"
     x="5.2499995"
     y="5.2499919"
     id="rect3757-62"
     style="display:inline;fill:#ff5555;fill-opacity:1;fill-rule:evenodd;stroke:none;stroke-width:1" />
  <path
     d="m 45.25,20.249979 c -22.09139,0 -40.0000013,17.90861 -40.0000013,40 0,5.52285 4.477152,10 10.0000013,10 22.09139,0 40,-17.90861 40,-40 0,-5.52285 -4.47715,-10 -10,-10 z"
     id="path3773-0-4-8-4-9"
     style="display:inline;fill:#ffffff;fill-opacity:1;fill-rule:evenodd;stroke:none;stroke-width:1" />
  <path
     d="m 28.25,30.249979 -5,5 v 6 l 5,-5 v 24 h 5 v -30 z"
     id="rect3921-1"
     style="display:inline;fill:#ff5555;fill-opacity:1;fill-rule:evenodd;stroke:none;stroke-width:1" />
  <path
     d="M 10.25,7.7499793 7.7499997,10.249979 v 3 l 2.5000003,-2.5 v 12 h 2.5 V 7.7499793 Z"
     id="rect3921-5-2"
     style="display:inline;fill:#ffffff;fill-opacity:1;fill-rule:evenodd;stroke:none;stroke-width:1" />
  <path
     d="m 50.25,82.749979 2.5,-2.5 v -3 l -2.5,2.5 v -12 h -2.5 v 15 z"
     id="rect3921-5-5-7"
     style="display:inline;fill:#ffffff;fill-opacity:1;fill-rule:evenodd;stroke:none;stroke-width:1" />
</svg>
