<?xml version="1.0" encoding="UTF-8" standalone="no"?>
<!-- Created with Inkscape (http://www.inkscape.org/) -->

<svg
   width="64.02916mm"
   height="95.779167mm"
   viewBox="0 0 64.02916 95.779167"
   version="1.1"
   id="svg1"
   inkscape:version="1.3.2 (1:1.3.2+202311252150+091e20ef0f)"
   sodipodi:docname="UNO_number_2_card.svg"
   xmlns:inkscape="http://www.inkscape.org/namespaces/inkscape"
   xmlns:sodipodi="http://sodipodi.sourceforge.net/DTD/sodipodi-0.dtd"
   xmlns="http://www.w3.org/2000/svg"
   xmlns:svg="http://www.w3.org/2000/svg">
  <sodipodi:namedview
     id="namedview1"
     pagecolor="#ffffff"
     bordercolor="#000000"
     borderopacity="0.25"
     inkscape:showpageshadow="2"
     inkscape:pageopacity="0.0"
     inkscape:pagecheckerboard="0"
     inkscape:deskcolor="#d1d1d1"
     inkscape:document-units="mm"
     inkscape:zoom="1.4815911"
     inkscape:cx="-26.660528"
     inkscape:cy="257.83093"
     inkscape:window-width="2485"
     inkscape:window-height="1376"
     inkscape:window-x="75"
     inkscape:window-y="27"
     inkscape:window-maximized="1"
     inkscape:current-layer="layer1" />
  <defs
     id="defs1" />
  <g
     inkscape:label="Layer 1"
     inkscape:groupmode="layer"
     id="layer1">
    <rect
       width="63.499996"
       height="95.25"
       rx="10.583333"
       ry="10.583333"
       x="0.26458251"
       y="0.26455173"
       id="rect2987-8"
       style="fill:#ffffff;fill-opacity:1;fill-rule:evenodd;stroke:#000000;stroke-width:0.529167;stroke-miterlimit:4;stroke-dasharray:none" />
    <rect
       width="52.916664"
       height="84.666664"
       rx="5.2916665"
       ry="5.2916665"
       x="5.5562444"
       y="5.5562158"
       id="rect3757-26"
       style="fill:#ff5555;fill-opacity:1;fill-rule:evenodd;stroke:none;stroke-width:1.05833" />
    <path
       d="m 47.889594,21.431199 c -23.38006,0 -42.3333402,18.953278 -42.3333402,42.333278 0,5.844987 4.7383132,10.58327 10.5833292,10.58327 23.380066,0 42.333345,-18.953172 42.333345,-42.333215 0,-5.845016 -4.738317,-10.583333 -10.583334,-10.583333 z"
       id="path3773-0-4-8-4-60"
       style="fill:#ffffff;fill-opacity:1;fill-rule:evenodd;stroke:none;stroke-width:1.05833" />
    <path
       d="m 30.956258,32.014543 c -5.86317,0 -10.583339,4.720156 -10.583339,10.583322 v 1.058333 h 5.29167 v -1.058333 c 0,-2.931583 2.360085,-5.291666 5.291669,-5.291666 2.931585,0 5.29167,2.360083 5.29167,5.291666 0,1.193271 -0.990082,3.534992 -2.024011,4.348713 -5.61426,4.418478 -5.554993,3.688757 -13.850998,9.409611 v 7.408288 h 10.583339 10.583337 v -5.29164 -2.116648 h -5.291667 v 2.116648 h -5.29167 -4.233335 c 6.551161,-4.612972 7.030194,-4.501176 12.163515,-9.095024 1.644734,-1.471888 2.653157,-4.393195 2.653157,-6.779948 0,-5.863166 -4.720167,-10.583322 -10.583337,-10.583322 z"
       id="rect3163-52-9-8-1-1-2-7-3-6-5"
       style="fill:#ff5555;fill-opacity:1;stroke:none;stroke-width:1.05833" />
    <path
       d="m 13.49375,8.2020342 c -2.931583,0 -5.2916647,2.3600818 -5.2916647,5.2916648 v 0.529167 h 2.6458317 v -0.529167 c 0,-1.465791 1.180042,-2.645833 2.645833,-2.645833 1.465792,0 2.645833,1.180042 2.645833,2.645833 0,0.596636 -0.495045,1.767491 -1.01201,2.174357 -2.807123,2.209239 -2.777489,1.844378 -6.9254877,4.70481 v 3.704166 h 5.2916647 5.291668 v -2.645833 -1.058333 h -2.645835 v 1.058333 H 13.49375 11.377084 c 3.275573,-2.3065 3.515095,-2.250599 6.081755,-4.54752 0.822368,-0.735944 1.326579,-2.196603 1.326579,-3.38998 0,-2.931583 -2.360085,-5.2916648 -5.291668,-5.2916648 z"
       id="rect3163-52-9-8-1-1-2-7-3-6-0-9"
       style="fill:#ffffff;fill-opacity:1;stroke:none;stroke-width:1.05833" />
    <path
       d="m 50.535428,87.576842 c 2.931583,0 5.291666,-2.360068 5.291666,-5.29164 v -0.529157 h -2.645833 v 0.529157 c 0,1.465781 -1.180042,2.645825 -2.645833,2.645825 -1.465792,0 -2.645834,-1.180044 -2.645834,-2.645825 0,-0.596627 0.495046,-1.767481 1.012011,-2.174338 2.807123,-2.209228 2.777489,-1.844368 6.925489,-4.704783 v -3.704149 h -5.291666 -5.291667 v 2.645815 1.058334 h 2.645833 v -1.058334 h 2.645834 2.116666 c -3.275573,2.306488 -3.515095,2.250588 -6.081754,4.547493 -0.822368,0.735947 -1.326579,2.196598 -1.326579,3.389962 0,2.931572 2.360084,5.29164 5.291667,5.29164 z"
       id="rect3163-52-9-8-1-1-2-7-3-6-0-4"
       style="fill:#ffffff;fill-opacity:1;stroke:none;stroke-width:1.05833" />
  </g>
</svg>
