<?xml version="1.0" encoding="UTF-8" standalone="no"?>
<!-- Created with Inkscape (http://www.inkscape.org/) -->

<svg
   width="64.02916mm"
   height="95.779167mm"
   viewBox="0 0 64.02916 95.779167"
   version="1.1"
   id="svg1"
   inkscape:version="1.3.2 (1:1.3.2+202311252150+091e20ef0f)"
   sodipodi:docname="UNO_clean_red_four.svg"
   xmlns:inkscape="http://www.inkscape.org/namespaces/inkscape"
   xmlns:sodipodi="http://sodipodi.sourceforge.net/DTD/sodipodi-0.dtd"
   xmlns="http://www.w3.org/2000/svg"
   xmlns:svg="http://www.w3.org/2000/svg"
   xmlns:rdf="http://www.w3.org/1999/02/22-rdf-syntax-ns#"
   xmlns:cc="http://creativecommons.org/ns#"
   xmlns:dc="http://purl.org/dc/elements/1.1/">
  <defs
     id="defs1" />
  <sodipodi:namedview
     id="base"
     pagecolor="#ffffff"
     bordercolor="#000000"
     borderopacity="0.3"
     inkscape:pageopacity="0.0"
     inkscape:pageshadow="2"
     inkscape:zoom="0.35"
     inkscape:cx="305.71429"
     inkscape:cy="371.42857"
     inkscape:document-units="mm"
     inkscape:showpageshadow="2"
     inkscape:pagecheckerboard="0"
     inkscape:deskcolor="#d1d1d1"
     inkscape:window-width="2485"
     inkscape:window-height="1376"
     inkscape:window-x="75"
     inkscape:window-y="27"
     inkscape:window-maximized="1"
     inkscape:current-layer="svg1" />
  <metadata
     id="metadata1">
    <rdf:RDF>
      <cc:Work
         rdf:about="">
        <dc:format>image/svg+xml</dc:format>
        <dc:type
           rdf:resource="http://purl.org/dc/dcmitype/StillImage" />
      </cc:Work>
    </rdf:RDF>
  </metadata>
  <rect
     width="63.499996"
     height="95.25"
     rx="10.583333"
     ry="10.583333"
     x="0.2645835"
     y="0.2645835"
     id="rect2987-8-5-0"
     style="fill:#ffffff;fill-opacity:1;fill-rule:evenodd;stroke:#000000;stroke-width:0.529167;stroke-miterlimit:4;stroke-dasharray:none" />
  <rect
     width="52.916664"
     height="84.666664"
     rx="5.2916665"
     ry="5.2916665"
     x="5.5562496"
     y="5.5562515"
     id="rect3757-26-33-8"
     style="fill:#ff5555;fill-opacity:1;fill-rule:evenodd;stroke:none;stroke-width:1.05833" />
  <path
     d="m 47.889581,21.431237 c -23.380053,0 -42.3333324,18.953278 -42.3333324,42.333332 0,5.84502 4.7383174,10.58333 10.5833334,10.58333 23.380054,0 42.333332,-18.95328 42.333332,-42.333329 0,-5.845016 -4.738316,-10.583333 -10.583333,-10.583333 z"
     id="path3773-0-4-8-4-60-3-8"
     style="fill:#ffffff;fill-opacity:1;fill-rule:evenodd;stroke:none;stroke-width:1.05833" />
  <path
     d="M 30.744593,32.014591 20.372916,53.181239 v 5.29166 h 12.699999 v 5.29169 h 5.291667 v -5.29169 h 3.175 v -5.29166 h -3.175 V 42.597935 H 33.072915 V 53.181239 H 25.876249 L 36.247915,32.014591 Z"
     id="rect3980-7-6-2-9-5-60-2"
     style="fill:#ff5555;fill-opacity:1;stroke:none;stroke-width:1.05833" />
  <path
     d="M 13.282083,8.2020713 8.0962486,18.785404 v 2.645844 h 6.3500004 v 2.645844 h 2.645833 v -2.645844 h 1.5875 v -2.645844 h -1.5875 v -5.291656 h -2.645833 v 5.291656 H 10.847916 L 16.033749,8.2020713 Z"
     id="rect3980-7-6-2-9-5-60-5-3"
     style="fill:#ffffff;fill-opacity:1;stroke:none;stroke-width:1.05833" />
  <path
     d="m 50.535415,87.577069 5.185833,-10.58333 v -2.64585 h -6.35 v -2.64584 h -2.645833 v 2.64584 h -1.5875 v 2.64585 h 1.5875 v 5.29165 h 2.645833 v -5.29165 h 3.598333 l -5.185833,10.58333 z"
     id="rect3980-7-6-2-9-5-60-5-3-9"
     style="fill:#ffffff;fill-opacity:1;stroke:none;stroke-width:1.05833" />
</svg>
