<?xml version="1.0" encoding="UTF-8" standalone="no"?>
<!-- Created with Inkscape (http://www.inkscape.org/) -->

<svg
   width="64.02916mm"
   height="95.779167mm"
   viewBox="0 0 64.02916 95.779167"
   version="1.1"
   id="svg1"
   inkscape:version="1.3.2 (1:1.3.2+202311252150+091e20ef0f)"
   sodipodi:docname="UNO_clean_red_reverseTurn.svg"
   xmlns:inkscape="http://www.inkscape.org/namespaces/inkscape"
   xmlns:sodipodi="http://sodipodi.sourceforge.net/DTD/sodipodi-0.dtd"
   xmlns="http://www.w3.org/2000/svg"
   xmlns:svg="http://www.w3.org/2000/svg"
   xmlns:rdf="http://www.w3.org/1999/02/22-rdf-syntax-ns#"
   xmlns:cc="http://creativecommons.org/ns#"
   xmlns:dc="http://purl.org/dc/elements/1.1/">
  <defs
     id="defs1" />
  <sodipodi:namedview
     id="base"
     pagecolor="#ffffff"
     bordercolor="#000000"
     borderopacity="0.3"
     inkscape:pageopacity="0.0"
     inkscape:pageshadow="2"
     inkscape:zoom="0.35"
     inkscape:cx="271.42857"
     inkscape:cy="337.14286"
     inkscape:document-units="mm"
     inkscape:showpageshadow="2"
     inkscape:pagecheckerboard="0"
     inkscape:deskcolor="#d1d1d1"
     inkscape:window-width="2485"
     inkscape:window-height="1376"
     inkscape:window-x="75"
     inkscape:window-y="27"
     inkscape:window-maximized="1"
     inkscape:current-layer="svg1" />
  <metadata
     id="metadata1">
    <rdf:RDF>
      <cc:Work
         rdf:about="">
        <dc:format>image/svg+xml</dc:format>
        <dc:type
           rdf:resource="http://purl.org/dc/dcmitype/StillImage" />
      </cc:Work>
    </rdf:RDF>
  </metadata>
  <rect
     width="63.499996"
     height="95.25"
     rx="10.583333"
     ry="10.583333"
     x="0.2645835"
     y="0.2645835"
     id="rect2987-8-5-81-25"
     style="fill:#ffffff;fill-opacity:1;fill-rule:evenodd;stroke:#000000;stroke-width:0.529167;stroke-miterlimit:4;stroke-dasharray:none" />
  <rect
     width="52.916664"
     height="84.666664"
     rx="5.2916665"
     ry="5.2916665"
     x="5.5562477"
     y="5.5562477"
     id="rect3757-26-33-5-8"
     style="fill:#ff5555;fill-opacity:1;fill-rule:evenodd;stroke:none;stroke-width:1.05833" />
  <path
     d="m 47.88958,21.431236 c -23.380053,0 -42.3333319,18.953278 -42.3333319,42.333332 0,5.84502 4.7383169,10.58333 10.5833339,10.58333 23.380053,0 42.333331,-18.95328 42.333331,-42.333329 0,-5.845016 -4.738316,-10.583333 -10.583333,-10.583333 z"
     id="path3773-0-4-8-4-60-3-86-6"
     style="fill:#ffffff;fill-opacity:1;fill-rule:evenodd;stroke:none;stroke-width:1.05833" />
  <path
     d="m 32.014581,30.691653 2.645833,2.645833 -10.583333,10.583332 c -2.645833,2.64583 -2.645833,7.9375 0,10.58333 l 5.291667,-5.29166 10.583333,-10.583336 2.645833,2.645836 V 30.691653 Z"
     id="path5973-41"
     style="fill:#ff5555;stroke:none;stroke-width:1.05833" />
  <path
     d="m 32.014581,65.087488 -2.645833,-2.64584 10.583333,-10.58333 c 2.645833,-2.64583 2.645833,-7.9375 0,-10.58333 l -5.291667,5.29166 -10.583333,10.58334 -2.645833,-2.64584 v 10.58334 z"
     id="path5973-4-6"
     style="fill:#ff5555;stroke:none;stroke-width:1.05833" />
  <path
     d="m 13.493748,8.2020593 1.322917,1.322917 -5.2916669,5.2916657 c -1.322916,1.322917 -1.322916,3.96875 0,5.291667 l 2.6458339,-2.645833 5.291666,-5.291667 1.322917,1.322917 V 8.2020593 Z"
     id="path5973-6-5"
     style="fill:#ffffff;stroke:none;stroke-width:1.05833" />
  <path
     d="m 13.493748,25.399975 -1.322916,-1.322916 5.291666,-5.291667 c 1.322917,-1.322916 1.322917,-3.96875 0,-5.291666 l -2.645833,2.645833 -5.2916669,5.291667 -1.322916,-1.322917 v 5.291666 z"
     id="path5973-4-3-5"
     style="fill:#ffffff;stroke:none;stroke-width:1.05833" />
  <path
     d="m 50.535414,70.379138 1.322916,1.32292 -5.291666,5.29167 c -1.322917,1.32291 -1.322917,3.96875 0,5.29166 l 2.645833,-2.64583 5.291667,-5.29167 1.322916,1.32292 v -5.29167 z"
     id="path5973-6-5-2"
     style="fill:#ffffff;stroke:none;stroke-width:1.05833" />
  <path
     d="m 50.535414,87.577058 -1.322917,-1.32292 5.291667,-5.29166 c 1.322916,-1.32292 1.322916,-3.96875 0,-5.29167 l -2.645834,2.64583 -5.291666,5.29167 -1.322917,-1.32292 v 5.29167 z"
     id="path5973-4-3-5-8"
     style="fill:#ffffff;stroke:none;stroke-width:1.05833" />
</svg>
