<?xml version="1.0" encoding="UTF-8" standalone="no"?>
<!-- Created with Inkscape (http://www.inkscape.org/) -->

<svg
   width="64.02916mm"
   height="95.779167mm"
   viewBox="0 0 64.02916 95.779167"
   version="1.1"
   id="svg1"
   inkscape:version="1.3.2 (1:1.3.2+202311252150+091e20ef0f)"
   sodipodi:docname="UNO_clean_red_skipMove.svg"
   xmlns:inkscape="http://www.inkscape.org/namespaces/inkscape"
   xmlns:sodipodi="http://sodipodi.sourceforge.net/DTD/sodipodi-0.dtd"
   xmlns="http://www.w3.org/2000/svg"
   xmlns:svg="http://www.w3.org/2000/svg"
   xmlns:rdf="http://www.w3.org/1999/02/22-rdf-syntax-ns#"
   xmlns:cc="http://creativecommons.org/ns#"
   xmlns:dc="http://purl.org/dc/elements/1.1/">
  <defs
     id="defs1" />
  <sodipodi:namedview
     id="base"
     pagecolor="#ffffff"
     bordercolor="#000000"
     borderopacity="0.3"
     inkscape:pageopacity="0.0"
     inkscape:pageshadow="2"
     inkscape:zoom="0.35"
     inkscape:cx="205.71429"
     inkscape:cy="371.42857"
     inkscape:document-units="mm"
     inkscape:showpageshadow="2"
     inkscape:pagecheckerboard="0"
     inkscape:deskcolor="#d1d1d1"
     inkscape:window-width="2485"
     inkscape:window-height="1376"
     inkscape:window-x="75"
     inkscape:window-y="27"
     inkscape:window-maximized="1"
     inkscape:current-layer="svg1" />
  <metadata
     id="metadata1">
    <rdf:RDF>
      <cc:Work
         rdf:about="">
        <dc:format>image/svg+xml</dc:format>
        <dc:type
           rdf:resource="http://purl.org/dc/dcmitype/StillImage" />
      </cc:Work>
    </rdf:RDF>
  </metadata>
  <rect
     width="63.499996"
     height="95.25"
     rx="10.583333"
     ry="10.583333"
     x="0.2645835"
     y="0.2645835"
     id="rect2987-8-5-81-5"
     style="fill:#ffffff;fill-opacity:1;fill-rule:evenodd;stroke:#000000;stroke-width:0.529167;stroke-miterlimit:4;stroke-dasharray:none" />
  <rect
     width="52.916664"
     height="84.666664"
     rx="5.2916665"
     ry="5.2916665"
     x="5.5562515"
     y="5.5562515"
     id="rect3757-26-33-5-3"
     style="fill:#ff5555;fill-opacity:1;fill-rule:evenodd;stroke:none;stroke-width:1.05833" />
  <path
     d="m 47.889582,21.431237 c -23.380053,0 -42.3333322,18.953278 -42.3333322,42.333332 0,5.84502 4.7383172,10.58333 10.5833332,10.58333 23.380054,0 42.333331,-18.95328 42.333331,-42.333329 0,-5.845016 -4.73832,-10.583333 -10.583332,-10.583333 z"
     id="path3773-0-4-8-4-60-3-86-2"
     style="fill:#ffffff;fill-opacity:1;fill-rule:evenodd;stroke:none;stroke-width:1.05833" />
  <path
     d="m 32.047656,32.014613 c -4.062762,-0.0053 -8.140964,1.534488 -11.244791,4.630208 -6.207654,6.191482 -6.224514,16.248858 -0.03302,22.456508 6.191482,6.20766 16.248855,6.22451 22.456509,0.033 6.20765,-6.19148 6.22451,-16.248854 0.03302,-22.456508 -3.095741,-3.103827 -7.148956,-4.657979 -11.211718,-4.663281 z m -0.03302,5.291666 c 1.851956,0.0021 3.712337,0.486929 5.357812,1.455208 L 22.886511,53.247429 c -2.392203,-4.061687 -1.838124,-9.382659 1.653646,-12.865369 2.069222,-2.063824 4.765971,-3.079305 7.474479,-3.075781 z m 9.128125,5.192448 c 2.408734,4.064772 1.845087,9.408792 -1.653646,12.898432 -3.495358,3.48625 -8.808392,3.99868 -12.865364,1.5875 z"
     id="path5897-6-5"
     style="fill:#ff5555;fill-opacity:1;fill-rule:evenodd;stroke:none;stroke-width:1.05833" />
  <path
     d="m 16.156072,8.2020713 c -2.030994,-0.0032 -4.069715,0.767175 -5.621337,2.3148917 -3.1032342,3.095445 -3.1116592,8.123672 -0.01651,11.227213 3.095159,3.10353 8.12292,3.111965 11.226165,0.01651 3.103234,-3.095445 3.111669,-8.123671 0.01651,-11.227202 C 20.213309,8.9817033 18.187099,8.2047063 16.156072,8.2020503 Z m -0.01651,2.6455997 c 0.925799,10e-4 1.85583,0.243428 2.678409,0.72752 l -7.241614,7.242302 c -1.195895,-2.030656 -0.918898,-4.690893 0.826664,-6.432085 1.034426,-1.031822 2.382541,-1.539515 3.736541,-1.537737 z m 4.563216,2.595965 c 1.20414,2.032212 0.922369,4.703974 -0.826675,6.448626 -1.74735,1.742969 -4.403375,1.99916 -6.431481,0.793676 z"
     id="path5897-6-8-2"
     style="fill:#ffffff;fill-opacity:1;fill-rule:evenodd;stroke:none;stroke-width:1.05833" />
  <path
     d="m 47.906071,71.702069 c -2.030994,-0.003 -4.069715,0.76718 -5.621337,2.31489 -3.103234,3.09545 -3.111659,8.12367 -0.01651,11.22721 3.095159,3.10354 8.12292,3.11197 11.22616,0.0165 3.10324,-3.09544 3.11167,-8.12367 0.0165,-11.2272 -1.54759,-1.55178 -3.5738,-2.32877 -5.604823,-2.33143 z m -0.01651,2.6456 c 0.925799,0.001 1.855833,0.24343 2.678413,0.72752 l -7.241618,7.2423 c -1.195895,-2.03065 -0.918898,-4.69089 0.826664,-6.43208 1.034426,-1.03182 2.382541,-1.53952 3.736541,-1.53774 z m 4.563213,2.59596 c 1.20414,2.03222 0.92237,4.70398 -0.82667,6.44863 -1.74735,1.74297 -4.403377,1.99916 -6.431483,0.79368 z"
     id="path5897-6-8-5"
     style="fill:#ffffff;fill-opacity:1;fill-rule:evenodd;stroke:none;stroke-width:1.05833" />
</svg>
