<?xml version="1.0" encoding="UTF-8" standalone="no"?>
<!-- Created with Inkscape (http://www.inkscape.org/) -->

<svg
   width="64.02916mm"
   height="95.779167mm"
   viewBox="0 0 64.02916 95.779167"
   version="1.1"
   id="svg1"
   inkscape:version="1.3.2 (1:1.3.2+202311252150+091e20ef0f)"
   sodipodi:docname="UNO_card_red_zero.svg"
   xmlns:inkscape="http://www.inkscape.org/namespaces/inkscape"
   xmlns:sodipodi="http://sodipodi.sourceforge.net/DTD/sodipodi-0.dtd"
   xmlns="http://www.w3.org/2000/svg"
   xmlns:svg="http://www.w3.org/2000/svg"
   xmlns:rdf="http://www.w3.org/1999/02/22-rdf-syntax-ns#"
   xmlns:cc="http://creativecommons.org/ns#"
   xmlns:dc="http://purl.org/dc/elements/1.1/">
  <defs
     id="defs1" />
  <sodipodi:namedview
     id="base"
     pagecolor="#ffffff"
     bordercolor="#000000"
     borderopacity="0.3"
     inkscape:pageopacity="0.0"
     inkscape:pageshadow="2"
     inkscape:zoom="0.35"
     inkscape:cx="-1342.8571"
     inkscape:cy="620"
     inkscape:document-units="mm"
     inkscape:showpageshadow="2"
     inkscape:pagecheckerboard="0"
     inkscape:deskcolor="#d1d1d1"
     inkscape:window-width="2485"
     inkscape:window-height="1376"
     inkscape:window-x="75"
     inkscape:window-y="27"
     inkscape:window-maximized="1"
     inkscape:current-layer="svg1" />
  <metadata
     id="metadata1">
    <rdf:RDF>
      <cc:Work
         rdf:about="">
        <dc:format>image/svg+xml</dc:format>
        <dc:type
           rdf:resource="http://purl.org/dc/dcmitype/StillImage" />
      </cc:Work>
    </rdf:RDF>
  </metadata>
  <rect
     width="63.499996"
     height="95.25"
     rx="10.583333"
     ry="10.583333"
     x="0.2645835"
     y="0.2645835"
     id="rect2987-1"
     style="fill:#ffffff;fill-opacity:1;fill-rule:evenodd;stroke:#000000;stroke-width:0.529167;stroke-miterlimit:4;stroke-dasharray:none" />
  <rect
     width="52.916664"
     height="84.666664"
     rx="5.2916665"
     ry="5.2916665"
     x="5.5562401"
     y="5.5562553"
     id="rect3757-5"
     style="fill:#ff5555;fill-opacity:1;fill-rule:evenodd;stroke:none;stroke-width:1.05833" />
  <path
     d="m 47.889583,21.431228 c -23.38006,0 -42.3333295,18.95328 -42.3333295,42.33333 0,5.845016 4.7383095,10.583333 10.5833295,10.583333 23.38005,0 42.33333,-18.953279 42.33333,-42.333333 0,-5.84502 -4.73832,-10.58333 -10.58333,-10.58333 z"
     id="path3773-0-4-8-4-2"
     style="fill:#ffffff;fill-opacity:1;fill-rule:evenodd;stroke:none;stroke-width:1.05833" />
  <path
     d="m 32.014583,32.014568 c -5.84502,0 -10.58333,4.73832 -10.58333,10.58333 v 10.583337 c 0,5.845016 4.73831,10.583333 10.58333,10.583333 5.84502,0 10.58333,-4.738317 10.58333,-10.583333 V 42.597898 c 0,-5.84501 -4.73831,-10.58333 -10.58333,-10.58333 z m 0,5.29167 c 2.9225,0 5.29167,2.36916 5.29167,5.29166 v 10.583337 c 0,2.922503 -2.36917,5.291667 -5.29167,5.291667 -2.9225,0 -5.29167,-2.369164 -5.29167,-5.291667 V 42.597898 c 0,-2.9225 2.36917,-5.29166 5.29167,-5.29166 z"
     id="path3962-7"
     style="fill:#ff5555;fill-opacity:1;fill-rule:evenodd;stroke:none;stroke-width:1.05833" />
  <path
     d="m 13.493753,8.2020683 c -2.92252,0 -5.2916695,2.3691597 -5.2916695,5.2916697 v 5.29166 c 0,2.92252 2.3691495,5.29167 5.2916695,5.29167 2.9225,0 5.29166,-2.36915 5.29166,-5.29167 v -5.29166 c 0,-2.92251 -2.36916,-5.2916697 -5.29166,-5.2916697 z m 0,2.6458397 c 1.46125,0 2.64583,1.18458 2.64583,2.64583 v 5.29166 c 0,1.46126 -1.18458,2.64584 -2.64583,2.64584 -1.46126,0 -2.64584,-1.18458 -2.64584,-2.64584 v -5.29166 c 0,-1.46125 1.18458,-2.64583 2.64584,-2.64583 z"
     id="path3962-7-1"
     style="fill:#ffffff;fill-opacity:1;fill-rule:evenodd;stroke:none;stroke-width:1.05833" />
  <path
     d="m 50.535413,71.702068 c -2.92251,0 -5.29166,2.369153 -5.29166,5.291666 v 5.291667 c 0,2.922513 2.36915,5.291666 5.29166,5.291666 2.9225,0 5.29167,-2.369153 5.29167,-5.291666 v -5.291667 c 0,-2.922513 -2.36917,-5.291666 -5.29167,-5.291666 z m 0,2.645833 c 1.46125,0 2.64583,1.184582 2.64583,2.645833 v 5.291667 c 0,1.461251 -1.18458,2.645833 -2.64583,2.645833 -1.46125,0 -2.64583,-1.184582 -2.64583,-2.645833 v -5.291667 c 0,-1.461251 1.18458,-2.645833 2.64583,-2.645833 z"
     id="path3962-7-1-2"
     style="fill:#ffffff;fill-opacity:1;fill-rule:evenodd;stroke:none;stroke-width:1.05833" />
</svg>
