<?xml version="1.0" encoding="UTF-8" standalone="no"?>
<!-- Created with Inkscape (http://www.inkscape.org/) -->

<svg
   width="64.02916mm"
   height="95.779167mm"
   viewBox="0 0 64.02916 95.779167"
   version="1.1"
   id="svg1"
   inkscape:version="1.3.2 (1:1.3.2+202311252150+091e20ef0f)"
   sodipodi:docname="UNO_clean_red_two.svg"
   xmlns:inkscape="http://www.inkscape.org/namespaces/inkscape"
   xmlns:sodipodi="http://sodipodi.sourceforge.net/DTD/sodipodi-0.dtd"
   xmlns="http://www.w3.org/2000/svg"
   xmlns:svg="http://www.w3.org/2000/svg"
   xmlns:rdf="http://www.w3.org/1999/02/22-rdf-syntax-ns#"
   xmlns:cc="http://creativecommons.org/ns#"
   xmlns:dc="http://purl.org/dc/elements/1.1/">
  <defs
     id="defs1" />
  <sodipodi:namedview
     id="base"
     pagecolor="#ffffff"
     bordercolor="#000000"
     borderopacity="0.3"
     inkscape:pageopacity="0.0"
     inkscape:pageshadow="2"
     inkscape:zoom="0.35"
     inkscape:cx="257.14286"
     inkscape:cy="337.14286"
     inkscape:document-units="mm"
     inkscape:showpageshadow="2"
     inkscape:pagecheckerboard="0"
     inkscape:deskcolor="#d1d1d1"
     inkscape:window-width="2485"
     inkscape:window-height="1376"
     inkscape:window-x="75"
     inkscape:window-y="27"
     inkscape:window-maximized="1"
     inkscape:current-layer="svg1" />
  <metadata
     id="metadata1">
    <rdf:RDF>
      <cc:Work
         rdf:about="">
        <dc:format>image/svg+xml</dc:format>
        <dc:type
           rdf:resource="http://purl.org/dc/dcmitype/StillImage" />
      </cc:Work>
    </rdf:RDF>
  </metadata>
  <rect
     width="63.499996"
     height="95.25"
     rx="10.583333"
     ry="10.583333"
     x="0.2645835"
     y="0.2645835"
     id="rect2987-8"
     style="fill:#ffffff;fill-opacity:1;fill-rule:evenodd;stroke:#000000;stroke-width:0.529167;stroke-miterlimit:4;stroke-dasharray:none" />
  <rect
     width="52.916664"
     height="84.666664"
     rx="5.2916665"
     ry="5.2916665"
     x="5.5562515"
     y="5.5562477"
     id="rect3757-26"
     style="fill:#ff5555;fill-opacity:1;fill-rule:evenodd;stroke:none;stroke-width:1.05833" />
  <path
     d="m 47.889583,21.431236 c -23.380053,0 -42.3333308,18.953278 -42.3333308,42.333332 0,5.84502 4.7383158,10.58333 10.5833318,10.58333 23.380054,0 42.333332,-18.95328 42.333332,-42.333329 0,-5.845016 -4.738316,-10.583333 -10.583333,-10.583333 z"
     id="path3773-0-4-8-4-60"
     style="fill:#ffffff;fill-opacity:1;fill-rule:evenodd;stroke:none;stroke-width:1.05833" />
  <path
     d="m 30.956251,32.01458 c -5.863167,0 -10.583333,4.720156 -10.583333,10.583318 v 1.05834 h 5.291666 v -1.05834 c 0,-2.931579 2.360083,-5.291662 5.291667,-5.291662 2.931583,0 5.291666,2.360083 5.291666,5.291662 0,1.19327 -0.990081,3.535 -2.024009,4.34872 -5.614257,4.41847 -5.554991,3.68875 -13.85099,9.40962 v 7.40833 h 10.583333 10.583333 v -5.29167 -2.11666 h -5.291667 v 2.11666 h -5.291666 -4.233334 c 6.551158,-4.613 7.030191,-4.5012 12.16351,-9.09505 1.644734,-1.47189 2.653157,-4.39319 2.653157,-6.77995 0,-5.863162 -4.720167,-10.583318 -10.583333,-10.583318 z"
     id="rect3163-52-9-8-1-1-2-7-3-6-5"
     style="fill:#ff5555;fill-opacity:1;stroke:none;stroke-width:1.05833" />
  <path
     d="m 13.493751,8.2020703 c -2.931583,0 -5.2916658,2.3600827 -5.2916658,5.2916657 v 0.529167 h 2.6458328 v -0.529167 c 0,-1.465791 1.180042,-2.645833 2.645833,-2.645833 1.465792,0 2.645833,1.180042 2.645833,2.645833 0,0.596636 -0.495045,1.767491 -1.01201,2.174357 -2.807123,2.209239 -2.777489,1.844378 -6.9254888,4.70481 v 3.704166 h 5.2916658 5.291667 v -2.645833 -1.058333 h -2.645834 v 1.058333 h -2.645833 -2.116666 c 3.275573,-2.3065 3.515095,-2.250599 6.081754,-4.54752 0.822368,-0.735944 1.326579,-2.196603 1.326579,-3.38998 0,-2.931583 -2.360084,-5.2916657 -5.291667,-5.2916657 z"
     id="rect3163-52-9-8-1-1-2-7-3-6-0-9"
     style="fill:#ffffff;fill-opacity:1;stroke:none;stroke-width:1.05833" />
  <path
     d="m 50.535417,87.577068 c 2.931583,0 5.291666,-2.36008 5.291666,-5.29167 v -0.52916 H 53.18125 v 0.52916 c 0,1.46579 -1.180042,2.64584 -2.645833,2.64584 -1.465792,0 -2.645834,-1.18005 -2.645834,-2.64584 0,-0.59663 0.495046,-1.76749 1.012011,-2.17435 2.807123,-2.20924 2.777489,-1.84438 6.925489,-4.70481 v -3.70417 H 50.535417 45.24375 v 2.64583 1.05834 h 2.645833 v -1.05834 h 2.645834 2.116666 c -3.275573,2.3065 -3.515095,2.2506 -6.081754,4.54752 -0.822368,0.73595 -1.326579,2.19661 -1.326579,3.38998 0,2.93159 2.360084,5.29167 5.291667,5.29167 z"
     id="rect3163-52-9-8-1-1-2-7-3-6-0-4"
     style="fill:#ffffff;fill-opacity:1;stroke:none;stroke-width:1.05833" />
</svg>
