<?xml version="1.0" encoding="UTF-8" standalone="no"?>
<!-- Created with Inkscape (http://www.inkscape.org/) -->

<svg
   width="64.02916mm"
   height="95.779167mm"
   viewBox="0 0 64.02916 95.779167"
   version="1.1"
   id="svg1"
   inkscape:version="1.3.2 (1:1.3.2+202311252150+091e20ef0f)"
   sodipodi:docname="UNO_clean_red_eight.svg"
   xmlns:inkscape="http://www.inkscape.org/namespaces/inkscape"
   xmlns:sodipodi="http://sodipodi.sourceforge.net/DTD/sodipodi-0.dtd"
   xmlns="http://www.w3.org/2000/svg"
   xmlns:svg="http://www.w3.org/2000/svg"
   xmlns:rdf="http://www.w3.org/1999/02/22-rdf-syntax-ns#"
   xmlns:cc="http://creativecommons.org/ns#"
   xmlns:dc="http://purl.org/dc/elements/1.1/">
  <defs
     id="defs1" />
  <sodipodi:namedview
     id="base"
     pagecolor="#ffffff"
     bordercolor="#000000"
     borderopacity="0.3"
     inkscape:pageopacity="0.0"
     inkscape:pageshadow="2"
     inkscape:zoom="0.35"
     inkscape:cx="262.85714"
     inkscape:cy="334.28571"
     inkscape:document-units="mm"
     inkscape:showpageshadow="2"
     inkscape:pagecheckerboard="0"
     inkscape:deskcolor="#d1d1d1"
     inkscape:window-width="2485"
     inkscape:window-height="1376"
     inkscape:window-x="75"
     inkscape:window-y="27"
     inkscape:window-maximized="1"
     inkscape:current-layer="svg1" />
  <metadata
     id="metadata1">
    <rdf:RDF>
      <cc:Work
         rdf:about="">
        <dc:format>image/svg+xml</dc:format>
        <dc:type
           rdf:resource="http://purl.org/dc/dcmitype/StillImage" />
      </cc:Work>
    </rdf:RDF>
  </metadata>
  <rect
     width="63.499996"
     height="95.25"
     rx="10.583333"
     ry="10.583333"
     x="0.2645835"
     y="0.2645835"
     id="rect2987-8-5-8"
     style="fill:#ffffff;fill-opacity:1;fill-rule:evenodd;stroke:#000000;stroke-width:0.529167;stroke-miterlimit:4;stroke-dasharray:none" />
  <rect
     width="52.916664"
     height="84.666664"
     rx="5.2916665"
     ry="5.2916665"
     x="5.5562515"
     y="5.5562515"
     id="rect3757-26-33-9"
     style="fill:#ff5555;fill-opacity:1;fill-rule:evenodd;stroke:none;stroke-width:1.05833" />
  <path
     d="m 47.889581,21.431236 c -23.380053,0 -42.3333318,18.953278 -42.3333318,42.333332 0,5.84502 4.7383168,10.58333 10.5833328,10.58333 23.380054,0 42.333332,-18.95328 42.333332,-42.333329 0,-5.845016 -4.738316,-10.583333 -10.583333,-10.583333 z"
     id="path3773-0-4-8-4-60-3-0"
     style="fill:#ffffff;fill-opacity:1;fill-rule:evenodd;stroke:none;stroke-width:1.05833" />
  <path
     d="m 32.014582,32.014569 c -4.383765,0 -7.9375,3.553672 -7.9375,7.9375 0,1.797789 0.613103,3.431749 1.620573,4.762499 -2.585434,1.92606 -4.266406,4.98052 -4.266406,8.46667 0,5.86316 4.720167,10.58333 10.583333,10.58333 5.863166,0 10.583333,-4.72017 10.583333,-10.58333 0,-3.48615 -1.680972,-6.54061 -4.266406,-8.46667 1.00747,-1.33075 1.620573,-2.96471 1.620573,-4.762499 0,-4.383828 -3.553735,-7.9375 -7.9375,-7.9375 z m 0,5.291667 c 1.461251,0 2.645833,1.184592 2.645833,2.645833 0,1.461239 -1.184582,2.645829 -2.645833,2.645829 -1.461251,0 -2.645833,-1.18459 -2.645833,-2.645829 0,-1.461241 1.184582,-2.645833 2.645833,-2.645833 z m -0.529167,10.583332 c 0.178319,-0.018 0.345938,0 0.529167,0 2.931583,0 5.291666,2.36008 5.291666,5.29167 0,2.93158 -2.360083,5.29166 -5.291666,5.29166 -2.931583,0 -5.291667,-2.36008 -5.291667,-5.29166 0,-2.74839 2.087669,-5.02169 4.7625,-5.29167 z"
     id="rect3163-52-9-8-1-1-2-7-3-6-4-6-1-8-8-5"
     style="fill:#ff5555;fill-opacity:1;stroke:none;stroke-width:1.05833" />
  <path
     d="m 13.493749,8.2020695 c -2.191882,0 -3.9687498,1.776825 -3.9687498,3.9687505 0,0.898895 0.306547,1.715876 0.8102818,2.38125 -1.2927118,0.96302 -2.1331978,2.490258 -2.1331978,4.233333 0,2.931583 2.3600828,5.291666 5.2916658,5.291666 2.931583,0 5.291667,-2.360083 5.291667,-5.291666 0,-1.743075 -0.840486,-3.270313 -2.133209,-4.233333 0.503746,-0.665374 0.810292,-1.482355 0.810292,-2.38125 0,-2.1919255 -1.776867,-3.9687505 -3.96875,-3.9687505 z m 0,2.6458335 c 0.730621,0 1.322917,0.592296 1.322917,1.322917 0,0.73061 -0.592296,1.322916 -1.322917,1.322916 -0.73062,0 -1.322916,-0.592306 -1.322916,-1.322916 0,-0.730621 0.592296,-1.322917 1.322916,-1.322917 z m -0.264583,5.291656 c 0.08911,-0.0095 0.172963,0 0.264583,0 1.465792,0 2.645833,1.180042 2.645833,2.645844 0,1.465792 -1.180041,2.645833 -2.645833,2.645833 -1.465791,0 -2.645833,-1.180041 -2.645833,-2.645833 0,-1.374193 1.043834,-2.510843 2.38125,-2.645844 z"
     id="rect3163-52-9-8-1-1-2-7-3-6-4-6-1-8-8-2-1"
     style="fill:#ffffff;fill-opacity:1;stroke:none;stroke-width:1.05833" />
  <path
     d="m 50.535415,87.577068 c -2.191883,0 -3.96875,-1.77683 -3.96875,-3.96875 0,-0.8989 0.306546,-1.71588 0.810281,-2.38125 -1.292712,-0.96302 -2.133198,-2.49026 -2.133198,-4.23333 0,-2.93159 2.360084,-5.29167 5.291667,-5.29167 2.931583,0 5.291666,2.36008 5.291666,5.29167 0,1.74307 -0.840486,3.27031 -2.133208,4.23333 0.503745,0.66537 0.810292,1.48235 0.810292,2.38125 0,2.19192 -1.776868,3.96875 -3.96875,3.96875 z m 0,-2.64583 c 0.73062,0 1.322916,-0.5923 1.322916,-1.32292 0,-0.73061 -0.592296,-1.32292 -1.322916,-1.32292 -0.730621,0 -1.322917,0.59231 -1.322917,1.32292 0,0.73062 0.592296,1.32292 1.322917,1.32292 z m -0.264584,-5.29166 c 0.08911,0.01 0.172964,0 0.264584,0 1.465791,0 2.645833,-1.18004 2.645833,-2.64584 0,-1.4658 -1.180042,-2.64584 -2.645833,-2.64584 -1.465792,0 -2.645834,1.18004 -2.645834,2.64584 0,1.37419 1.043835,2.51084 2.38125,2.64584 z"
     id="rect3163-52-9-8-1-1-2-7-3-6-4-6-1-8-8-2-1-1"
     style="fill:#ffffff;fill-opacity:1;stroke:none;stroke-width:1.05833" />
</svg>
