<?xml version="1.0" encoding="UTF-8" standalone="no"?>
<!-- Created with Inkscape (http://www.inkscape.org/) -->

<svg
   width="64.02916mm"
   height="95.779167mm"
   viewBox="0 0 64.02916 95.779167"
   version="1.1"
   id="svg1"
   inkscape:version="1.3.2 (1:1.3.2+202311252150+091e20ef0f)"
   sodipodi:docname="UNO_clean_red_zero.svg"
   xmlns:inkscape="http://www.inkscape.org/namespaces/inkscape"
   xmlns:sodipodi="http://sodipodi.sourceforge.net/DTD/sodipodi-0.dtd"
   xmlns="http://www.w3.org/2000/svg"
   xmlns:svg="http://www.w3.org/2000/svg"
   xmlns:rdf="http://www.w3.org/1999/02/22-rdf-syntax-ns#"
   xmlns:cc="http://creativecommons.org/ns#"
   xmlns:dc="http://purl.org/dc/elements/1.1/">
  <defs
     id="defs1" />
  <sodipodi:namedview
     id="base"
     pagecolor="#ffffff"
     bordercolor="#000000"
     borderopacity="0.3"
     inkscape:pageopacity="0.0"
     inkscape:pageshadow="2"
     inkscape:zoom="0.35"
     inkscape:cx="202.85714"
     inkscape:cy="397.14286"
     inkscape:document-units="mm"
     inkscape:showpageshadow="2"
     inkscape:pagecheckerboard="0"
     inkscape:deskcolor="#d1d1d1"
     inkscape:window-width="2485"
     inkscape:window-height="1376"
     inkscape:window-x="75"
     inkscape:window-y="27"
     inkscape:window-maximized="1"
     inkscape:current-layer="svg1" />
  <metadata
     id="metadata1">
    <rdf:RDF>
      <cc:Work
         rdf:about="">
        <dc:format>image/svg+xml</dc:format>
        <dc:type
           rdf:resource="http://purl.org/dc/dcmitype/StillImage" />
      </cc:Work>
    </rdf:RDF>
  </metadata>
  <rect
     width="63.499996"
     height="95.25"
     rx="10.583333"
     ry="10.583333"
     x="0.2645835"
     y="0.2645835"
     id="rect2987-1"
     style="fill:#ffffff;fill-opacity:1;fill-rule:evenodd;stroke:#000000;stroke-width:0.529167;stroke-miterlimit:4;stroke-dasharray:none" />
  <rect
     width="52.916664"
     height="84.666664"
     rx="5.2916665"
     ry="5.2916665"
     x="5.5562515"
     y="5.5562515"
     id="rect3757-5"
     style="fill:#ff5555;fill-opacity:1;fill-rule:evenodd;stroke:none;stroke-width:1.05833" />
  <path
     d="m 47.889582,21.431226 c -23.380054,0 -42.3333327,18.953278 -42.3333327,42.333332 0,5.84502 4.7383167,10.58333 10.5833337,10.58333 23.380053,0 42.333333,-18.953276 42.333333,-42.333329 0,-5.845016 -4.73832,-10.583333 -10.583334,-10.583333 z"
     id="path3773-0-4-8-4-2"
     style="fill:#ffffff;fill-opacity:1;fill-rule:evenodd;stroke:none;stroke-width:1.05833" />
  <path
     d="m 32.014582,32.014569 c -5.845016,0 -10.583333,4.738317 -10.583333,10.583333 v 10.583333 c 0,5.845013 4.738317,10.583333 10.583333,10.583333 5.845016,0 10.583333,-4.73832 10.583333,-10.583333 V 42.597902 c 0,-5.845016 -4.738317,-10.583333 -10.583333,-10.583333 z m 0,5.291667 c 2.922503,0 5.291666,2.369163 5.291666,5.291666 v 10.583333 c 0,2.922503 -2.369163,5.291663 -5.291666,5.291663 -2.922503,0 -5.291667,-2.36916 -5.291667,-5.291663 V 42.597902 c 0,-2.922503 2.369164,-5.291666 5.291667,-5.291666 z"
     id="path3962-7"
     style="fill:#ff5555;fill-opacity:1;fill-rule:evenodd;stroke:none;stroke-width:1.05833" />
  <path
     d="m 13.493749,8.2020703 c -2.922513,0 -5.2916657,2.3691527 -5.2916657,5.2916657 v 5.291667 c 0,2.922513 2.3691527,5.291666 5.2916657,5.291666 2.922503,0 5.291667,-2.369153 5.291667,-5.291666 v -5.291667 c 0,-2.922513 -2.369164,-5.2916657 -5.291667,-5.2916657 z m 0,2.6458327 c 1.461252,0 2.645834,1.184582 2.645834,2.645833 v 5.291667 c 0,1.461251 -1.184582,2.645833 -2.645834,2.645833 -1.461251,0 -2.645833,-1.184582 -2.645833,-2.645833 v -5.291667 c 0,-1.461251 1.184582,-2.645833 2.645833,-2.645833 z"
     id="path3962-7-1"
     style="fill:#ffffff;fill-opacity:1;fill-rule:evenodd;stroke:none;stroke-width:1.05833" />
  <path
     d="m 50.535416,71.702068 c -2.922515,0 -5.291668,2.36915 -5.291668,5.29167 v 5.29166 c 0,2.92252 2.369153,5.29167 5.291668,5.29167 2.9225,0 5.29167,-2.36915 5.29167,-5.29167 v -5.29166 c 0,-2.92252 -2.36917,-5.29167 -5.29167,-5.29167 z m 0,2.64583 c 1.46125,0 2.64583,1.18459 2.64583,2.64584 v 5.29166 c 0,1.46125 -1.18458,2.64584 -2.64583,2.64584 -1.46125,0 -2.645834,-1.18459 -2.645834,-2.64584 v -5.29166 c 0,-1.46125 1.184584,-2.64584 2.645834,-2.64584 z"
     id="path3962-7-1-2"
     style="fill:#ffffff;fill-opacity:1;fill-rule:evenodd;stroke:none;stroke-width:1.05833" />
</svg>
