<svg
    width="64.02916mm"
    height="95.779167mm"
    viewBox="0 0 64.02916 95.779167"
    version="1.1"
    id="svg1"
	xmlns="http://www.w3.org/2000/svg"
	xmlns:svg="http://www.w3.org/2000/svg"
>
	<rect
     width="63.499996"
     height="95.25"
     rx="10.583333"
     ry="10.583333"
     x="0.2645835"
     y="0.2645835"
     id="rect2987-1"
     style="fill:#ffffff;fill-opacity:1;fill-rule:evenodd;stroke:#000000;stroke-width:0.529167;stroke-miterlimit:4;stroke-dasharray:none" />
	<rect
     width="52.916664"
     height="84.666664"
     rx="5.2916665"
     ry="5.2916665"
     x="5.5562401"
     y="5.5562553"
     id="rect3757-5"
     style="fill:#ff5555;fill-opacity:1;fill-rule:evenodd;stroke:none;stroke-width:1.05833" />
	<path
     d="m 47.889583,21.431228 c -23.38006,0 -42.3333295,18.95328 -42.3333295,42.33333 0,5.845016 4.7383095,10.583333 10.5833295,10.583333 23.38005,0 42.33333,-18.953279 42.33333,-42.333333 0,-5.84502 -4.73832,-10.58333 -10.58333,-10.58333 z"
     id="path3773-0-4-8-4-2"
     style="fill:#ffffff;fill-opacity:1;fill-rule:evenodd;stroke:none;stroke-width:1.05833" />
  <g id="toppings">
    <g id="zero">
      <path
          d="m 32.014583,32.014568 c -5.84502,0 -10.58333,4.73832 -10.58333,10.58333 v 10.583337 c 0,5.845016 4.73831,10.583333 10.58333,10.583333 5.84502,0 10.58333,-4.738317 10.58333,-10.583333 V 42.597898 c 0,-5.84501 -4.73831,-10.58333 -10.58333,-10.58333 z m 0,5.29167 c 2.9225,0 5.29167,2.36916 5.29167,5.29166 v 10.583337 c 0,2.922503 -2.36917,5.291667 -5.29167,5.291667 -2.9225,0 -5.29167,-2.369164 -5.29167,-5.291667 V 42.597898 c 0,-2.9225 2.36917,-5.29166 5.29167,-5.29166 z"
          id="path3962-7"
          style="fill:#ff5555;fill-opacity:1;fill-rule:evenodd;stroke:none;stroke-width:1.05833" />
      <path
          d="m 13.493753,8.2020683 c -2.92252,0 -5.2916695,2.3691597 -5.2916695,5.2916697 v 5.29166 c 0,2.92252 2.3691495,5.29167 5.2916695,5.29167 2.9225,0 5.29166,-2.36915 5.29166,-5.29167 v -5.29166 c 0,-2.92251 -2.36916,-5.2916697 -5.29166,-5.2916697 z m 0,2.6458397 c 1.46125,0 2.64583,1.18458 2.64583,2.64583 v 5.29166 c 0,1.46126 -1.18458,2.64584 -2.64583,2.64584 -1.46126,0 -2.64584,-1.18458 -2.64584,-2.64584 v -5.29166 c 0,-1.46125 1.18458,-2.64583 2.64584,-2.64583 z"
          id="path3962-7-1"
          style="fill:#ffffff;fill-opacity:1;fill-rule:evenodd;stroke:none;stroke-width:1.05833" />
      <path
          d="m 50.535413,71.702068 c -2.92251,0 -5.29166,2.369153 -5.29166,5.291666 v 5.291667 c 0,2.922513 2.36915,5.291666 5.29166,5.291666 2.9225,0 5.29167,-2.369153 5.29167,-5.291666 v -5.291667 c 0,-2.922513 -2.36917,-5.291666 -5.29167,-5.291666 z m 0,2.645833 c 1.46125,0 2.64583,1.184582 2.64583,2.645833 v 5.291667 c 0,1.461251 -1.18458,2.645833 -2.64583,2.645833 -1.46125,0 -2.64583,-1.184582 -2.64583,-2.645833 v -5.291667 c 0,-1.461251 1.18458,-2.645833 2.64583,-2.645833 z"
          id="path3962-7-1-2"
          style="fill:#ffffff;fill-opacity:1;fill-rule:evenodd;stroke:none;stroke-width:1.05833" />
    </g>
    <g id="one">
      <path
          d="m 29.897916,32.01457 -5.291666,5.291667 v 6.349999 l 5.291666,-5.291666 v 25.399999 h 5.291667 V 32.01457 Z"
          id="rect3921"
          style="fill:#ff5555;fill-opacity:1;fill-rule:evenodd;stroke:none;stroke-width:1.05833" />
      <path
          d="M 10.847917,8.2020705 8.202084,10.847904 v 3.175 l 2.645833,-2.645833 V 24.07707 H 13.49375 V 8.2020705 Z"
          id="rect3921-5"
          style="fill:#ffffff;fill-opacity:1;fill-rule:evenodd;stroke:none;stroke-width:1.05833" />
      <path
          d="m 53.181249,87.577069 2.645833,-2.64583 v -3.175 l -2.645833,2.64583 v -12.7 h -2.645833 v 15.875 z"
          id="rect3921-5-5"
          style="fill:#ffffff;fill-opacity:1;fill-rule:evenodd;stroke:none;stroke-width:1.05833" />
    </g>
    <g id="two">
      <path
        d="m 30.956251,32.01458 c -5.863167,0 -10.583333,4.720156 -10.583333,10.583318 v 1.05834 h 5.291666 v -1.05834 c 0,-2.931579 2.360083,-5.291662 5.291667,-5.291662 2.931583,0 5.291666,2.360083 5.291666,5.291662 0,1.19327 -0.990081,3.535 -2.024009,4.34872 -5.614257,4.41847 -5.554991,3.68875 -13.85099,9.40962 v 7.40833 h 10.583333 10.583333 v -5.29167 -2.11666 h -5.291667 v 2.11666 h -5.291666 -4.233334 c 6.551158,-4.613 7.030191,-4.5012 12.16351,-9.09505 1.644734,-1.47189 2.653157,-4.39319 2.653157,-6.77995 0,-5.863162 -4.720167,-10.583318 -10.583333,-10.583318 z"
        id="rect3163-52-9-8-1-1-2-7-3-6-5"
        style="fill:#ff5555;fill-opacity:1;stroke:none;stroke-width:1.05833" />
      <path
        d="m 13.493751,8.2020703 c -2.931583,0 -5.2916658,2.3600827 -5.2916658,5.2916657 v 0.529167 h 2.6458328 v -0.529167 c 0,-1.465791 1.180042,-2.645833 2.645833,-2.645833 1.465792,0 2.645833,1.180042 2.645833,2.645833 0,0.596636 -0.495045,1.767491 -1.01201,2.174357 -2.807123,2.209239 -2.777489,1.844378 -6.9254888,4.70481 v 3.704166 h 5.2916658 5.291667 v -2.645833 -1.058333 h -2.645834 v 1.058333 h -2.645833 -2.116666 c 3.275573,-2.3065 3.515095,-2.250599 6.081754,-4.54752 0.822368,-0.735944 1.326579,-2.196603 1.326579,-3.38998 0,-2.931583 -2.360084,-5.2916657 -5.291667,-5.2916657 z"
        id="rect3163-52-9-8-1-1-2-7-3-6-0-9"
        style="fill:#ffffff;fill-opacity:1;stroke:none;stroke-width:1.05833" />
      <path
        d="m 50.535417,87.577068 c 2.931583,0 5.291666,-2.36008 5.291666,-5.29167 v -0.52916 H 53.18125 v 0.52916 c 0,1.46579 -1.180042,2.64584 -2.645833,2.64584 -1.465792,0 -2.645834,-1.18005 -2.645834,-2.64584 0,-0.59663 0.495046,-1.76749 1.012011,-2.17435 2.807123,-2.20924 2.777489,-1.84438 6.925489,-4.70481 v -3.70417 H 50.535417 45.24375 v 2.64583 1.05834 h 2.645833 v -1.05834 h 2.645834 2.116666 c -3.275573,2.3065 -3.515095,2.2506 -6.081754,4.54752 -0.822368,0.73595 -1.326579,2.19661 -1.326579,3.38998 0,2.93159 2.360084,5.29167 5.291667,5.29167 z"
        id="rect3163-52-9-8-1-1-2-7-3-6-0-4"
        style="fill:#ffffff;fill-opacity:1;stroke:none;stroke-width:1.05833" />
    </g>
    <g id="three">
      <path
        d="m 32.014583,32.014569 c -4.383765,0 -7.9375,3.553735 -7.9375,7.9375 h 5.291667 c 0,-1.461251 1.184582,-2.645833 2.645833,-2.645833 1.461251,0 2.645833,1.184582 2.645833,2.645833 0,1.461251 -1.184582,2.645833 -2.645833,2.645833 h -3.175 v 5.291667 h 3.175 c 2.931583,0 5.291666,2.360083 5.291666,5.291666 0,2.931583 -2.360083,5.291663 -5.291666,5.291663 -2.931583,0 -5.291667,-2.36008 -5.291667,-5.291663 H 21.43125 c 0,5.863163 4.720167,10.583333 10.583333,10.583333 5.863166,0 10.583333,-4.72017 10.583333,-10.583333 0,-3.486086 -1.680972,-6.540616 -4.266406,-8.466666 1.00747,-1.330727 1.620573,-2.96473 1.620573,-4.7625 0,-4.383765 -3.553735,-7.9375 -7.9375,-7.9375 z"
        id="rect3163-52-9-8-1-1-2-7-3-6-4-6-1-8-7-0-1"
        style="fill:#ff5555;fill-opacity:1;stroke:none;stroke-width:1.05833" />
      <path
        d="m 13.49375,8.2020695 c -2.191882,0 -3.9687504,1.776867 -3.9687504,3.9687505 h 2.6458344 c 0,-0.730631 0.592296,-1.322917 1.322916,-1.322917 0.730621,0 1.322917,0.592286 1.322917,1.322917 0,0.73062 -0.592296,1.322916 -1.322917,1.322916 h -1.5875 v 2.645823 h 1.5875 c 1.465792,0 2.645833,1.180042 2.645833,2.645844 0,1.465792 -1.180041,2.645833 -2.645833,2.645833 -1.465791,0 -2.645833,-1.180041 -2.645833,-2.645833 H 8.2020836 c 0,2.931583 2.3600834,5.291666 5.2916664,5.291666 2.931583,0 5.291667,-2.360083 5.291667,-5.291666 0,-1.743043 -0.840486,-3.270313 -2.133209,-4.233333 0.503746,-0.665374 0.810292,-1.482365 0.810292,-2.38125 0,-2.1918835 -1.776867,-3.9687505 -3.96875,-3.9687505 z"
        id="rect3163-52-9-8-1-1-2-7-3-6-4-6-1-8-7-0-6-2"
        style="fill:#ffffff;fill-opacity:1;stroke:none;stroke-width:1.05833" />
      <path
        d="m 50.535416,87.577068 c 2.191882,0 3.96875,-1.77687 3.96875,-3.96875 h -2.645834 c 0,0.73063 -0.592296,1.32292 -1.322916,1.32292 -0.730621,0 -1.322917,-0.59229 -1.322917,-1.32292 0,-0.73062 0.592296,-1.32292 1.322917,-1.32292 h 1.5875 v -2.64582 h -1.5875 c -1.465792,0 -2.645834,-1.18004 -2.645834,-2.64584 0,-1.4658 1.180042,-2.64584 2.645834,-2.64584 1.465791,0 2.645833,1.18004 2.645833,2.64584 h 2.645833 c 0,-2.93159 -2.360083,-5.29167 -5.291666,-5.29167 -2.931583,0 -5.291667,2.36008 -5.291667,5.29167 0,1.74304 0.840486,3.27031 2.133209,4.23333 -0.503746,0.66537 -0.810292,1.48236 -0.810292,2.38125 0,2.19188 1.776867,3.96875 3.96875,3.96875 z"
        id="rect3163-52-9-8-1-1-2-7-3-6-4-6-1-8-7-0-6-2-6"
        style="fill:#ffffff;fill-opacity:1;stroke:none;stroke-width:1.05833" />
    </g>
    <g id="four">
      <path
        d="M 30.744593,32.014591 20.372916,53.181239 v 5.29166 h 12.699999 v 5.29169 h 5.291667 v -5.29169 h 3.175 v -5.29166 h -3.175 V 42.597935 H 33.072915 V 53.181239 H 25.876249 L 36.247915,32.014591 Z"
        id="rect3980-7-6-2-9-5-60-2"
        style="fill:#ff5555;fill-opacity:1;stroke:none;stroke-width:1.05833" />
      <path
        d="M 13.282083,8.2020713 8.0962486,18.785404 v 2.645844 h 6.3500004 v 2.645844 h 2.645833 v -2.645844 h 1.5875 v -2.645844 h -1.5875 v -5.291656 h -2.645833 v 5.291656 H 10.847916 L 16.033749,8.2020713 Z"
        id="rect3980-7-6-2-9-5-60-5-3"
        style="fill:#ffffff;fill-opacity:1;stroke:none;stroke-width:1.05833" />
      <path
        d="m 50.535415,87.577069 5.185833,-10.58333 v -2.64585 h -6.35 v -2.64584 h -2.645833 v 2.64584 h -1.5875 v 2.64585 h 1.5875 v 5.29165 h 2.645833 v -5.29165 h 3.598333 l -5.185833,10.58333 z"
        id="rect3980-7-6-2-9-5-60-5-3-9"
        style="fill:#ffffff;fill-opacity:1;stroke:none;stroke-width:1.05833" />
    </g>
    <g id="five">
      <path
        d="m 22.489583,32.014569 v 10.583329 5.29167 h 10.583333 c 2.931584,0 5.291667,2.36008 5.291667,5.29167 0,2.93158 -2.360083,5.29166 -5.291667,5.29166 -2.931583,0 -5.291666,-2.36008 -5.291666,-5.29166 h -5.291667 c 0,5.86316 4.720167,10.58333 10.583333,10.58333 5.863167,0 10.583333,-4.72017 10.583333,-10.58333 0,-5.86317 -4.720166,-10.58334 -10.583333,-10.58334 H 27.78125 v -5.291662 h 5.291666 9.525 v -5.291667 h -9.525 -5.291666 z"
        id="rect3163-6-0-0-2-7-1-2-19-4"
        style="fill:#ff5555;fill-opacity:1;stroke:none;stroke-width:1.05833" />
      <path
        d="M 8.2020842,8.2020703 V 13.493736 16.13957 H 13.49375 c 1.465792,0 2.645833,1.180041 2.645833,2.645833 0,1.465792 -1.180041,2.645833 -2.645833,2.645833 -1.465791,0 -2.645833,-1.180041 -2.645833,-2.645833 H 8.2020842 c 0,2.931583 2.3600828,5.291666 5.2916658,5.291666 2.931583,0 5.291667,-2.360083 5.291667,-5.291666 0,-2.931583 -2.360084,-5.291667 -5.291667,-5.291667 h -2.645833 v -2.645833 h 2.645833 4.7625 V 8.2020703 h -4.7625 -2.645833 z"
        id="rect3163-6-0-0-2-7-1-2-19-2-4"
        style="fill:#ffffff;fill-opacity:1;stroke:none;stroke-width:1.05833" />
      <path
        d="m 55.827082,87.577068 v -5.29167 -2.64583 h -5.291666 c -1.465792,0 -2.645834,-1.18004 -2.645834,-2.64583 0,-1.4658 1.180042,-2.64584 2.645834,-2.64584 1.465791,0 2.645833,1.18004 2.645833,2.64584 h 2.645833 c 0,-2.93159 -2.360083,-5.29167 -5.291666,-5.29167 -2.931583,0 -5.291667,2.36008 -5.291667,5.29167 0,2.93158 2.360084,5.29166 5.291667,5.29166 h 2.645833 v 2.64584 h -2.645833 -4.7625 v 2.64583 h 4.7625 2.645833 z"
        id="rect3163-6-0-0-2-7-1-2-19-2-4-6"
        style="fill:#ffffff;fill-opacity:1;stroke:none;stroke-width:1.05833" />
    </g>
    <g id="six">
      <path
        d="m 32.014583,32.014569 c -5.845016,0 -10.583333,4.738317 -10.583333,10.583333 v 10.583333 c 0,5.845013 4.738317,10.583333 10.583333,10.583333 5.845016,0 10.583333,-4.73832 10.583333,-10.583333 0,-5.845016 -4.738317,-10.583333 -10.583333,-10.583333 -1.922992,0 -3.737578,0.525717 -5.291667,1.422136 v -1.422136 c 0,-2.922503 2.369164,-5.291666 5.291667,-5.291666 2.068258,0 3.825981,1.21395 4.696354,2.943489 l 4.7625,-2.38125 c -1.734894,-3.475947 -5.309933,-5.853906 -9.458854,-5.853906 z m 0,15.875 c 2.922503,0 5.291667,2.369163 5.291667,5.291666 0,2.922503 -2.369164,5.291663 -5.291667,5.291663 -2.922503,0 -5.291667,-2.36916 -5.291667,-5.291663 0,-2.922503 2.369164,-5.291666 5.291667,-5.291666 z m -5.291667,16.933329 v 2.11667 H 37.30625 v -2.11667 z"
        id="path3962-5-6-2"
        style="fill:#ff5555;fill-opacity:1;fill-rule:evenodd;stroke:none;stroke-width:1.05833" />
      <path
        d="m 13.49375,8.2020695 c -2.922513,0 -5.2916663,2.3691745 -5.2916663,5.2916775 v 5.291645 c 0,2.922514 2.3691533,5.291677 5.2916663,5.291677 2.922503,0 5.291667,-2.369163 5.291667,-5.291677 0,-2.922492 -2.369164,-5.291645 -5.291667,-5.291645 -0.961496,0 -1.868794,0.262858 -2.645833,0.711062 v -0.711062 c 0,-1.461251 1.184582,-2.645833 2.645833,-2.645833 1.034119,0 1.912991,0.606964 2.348167,1.471739 l 2.38125,-1.190625 C 17.355735,9.3910535 15.568211,8.2020695 13.49375,8.2020695 Z m 0,7.9375005 c 1.461241,0 2.645823,1.184571 2.645823,2.645822 0,1.461252 -1.184582,2.645844 -2.645823,2.645844 -1.461251,0 -2.645833,-1.184592 -2.645833,-2.645844 0,-1.461251 1.184582,-2.645822 2.645833,-2.645822 z"
        id="path3962-5-6-2-1"
        style="fill:#ffffff;fill-opacity:1;fill-rule:evenodd;stroke:none;stroke-width:1.05833" />
      <path
        d="m 50.535416,87.577068 c 2.92251,0 5.29167,-2.36917 5.29167,-5.29168 v -5.29164 c 0,-2.92252 -2.36916,-5.29168 -5.29167,-5.29168 -2.922503,0 -5.291667,2.36916 -5.291667,5.29168 0,2.92249 2.369164,5.29164 5.291667,5.29164 0.961496,0 1.868794,-0.26286 2.645833,-0.71106 v 0.71106 c 0,1.46125 -1.184582,2.64584 -2.645833,2.64584 -1.034119,0 -1.912991,-0.60697 -2.348167,-1.47174 l -2.38125,1.19062 c 0.867432,1.73797 2.654956,2.92696 4.729417,2.92696 z m 0,-7.9375 c -1.461241,0 -2.645823,-1.18457 -2.645823,-2.64582 0,-1.46125 1.184582,-2.64585 2.645823,-2.64585 1.461251,0 2.645833,1.1846 2.645833,2.64585 0,1.46125 -1.184582,2.64582 -2.645833,2.64582 z"
        id="path3962-5-6-2-1-8"
        style="fill:#ffffff;fill-opacity:1;fill-rule:evenodd;stroke:none;stroke-width:1.05833" />
    </g>
    <g id="seven">
      <path
        d="m 23.018749,32.01457 v 10.583333 h 5.291666 V 37.306237 H 38.893748 L 28.310415,63.764569 h 5.291667 L 44.185415,37.306237 V 32.01457 h -15.875 z"
        id="rect4014"
        style="fill:#ff5555;fill-opacity:1;fill-rule:evenodd;stroke:none;stroke-width:1.05833" />
      <path
        d="m 8.2020832,8.2020708 v 5.2916662 h 2.6458328 v -2.645833 h 5.291666 L 10.847916,24.07707 h 2.645833 L 18.785416,10.847904 V 8.2020708 h -7.9375 z"
        id="rect4014-3"
        style="fill:#ffffff;fill-opacity:1;fill-rule:evenodd;stroke:none;stroke-width:1.05833" />
      <path
        d="m 55.827081,87.577069 v -5.29167 h -2.645833 v 2.64584 h -5.291667 l 5.291667,-13.22917 h -2.645833 l -5.291667,13.22917 v 2.64583 h 7.9375 z"
        id="rect4014-3-3"
        style="fill:#ffffff;fill-opacity:1;fill-rule:evenodd;stroke:none;stroke-width:1.05833" />
    </g>
    <g id="eight">
      <path
          d="m 32.014582,32.014569 c -4.383765,0 -7.9375,3.553672 -7.9375,7.9375 0,1.797789 0.613103,3.431749 1.620573,4.762499 -2.585434,1.92606 -4.266406,4.98052 -4.266406,8.46667 0,5.86316 4.720167,10.58333 10.583333,10.58333 5.863166,0 10.583333,-4.72017 10.583333,-10.58333 0,-3.48615 -1.680972,-6.54061 -4.266406,-8.46667 1.00747,-1.33075 1.620573,-2.96471 1.620573,-4.762499 0,-4.383828 -3.553735,-7.9375 -7.9375,-7.9375 z m 0,5.291667 c 1.461251,0 2.645833,1.184592 2.645833,2.645833 0,1.461239 -1.184582,2.645829 -2.645833,2.645829 -1.461251,0 -2.645833,-1.18459 -2.645833,-2.645829 0,-1.461241 1.184582,-2.645833 2.645833,-2.645833 z m -0.529167,10.583332 c 0.178319,-0.018 0.345938,0 0.529167,0 2.931583,0 5.291666,2.36008 5.291666,5.29167 0,2.93158 -2.360083,5.29166 -5.291666,5.29166 -2.931583,0 -5.291667,-2.36008 -5.291667,-5.29166 0,-2.74839 2.087669,-5.02169 4.7625,-5.29167 z"
          id="rect3163-52-9-8-1-1-2-7-3-6-4-6-1-8-8-5"
          style="fill:#ff5555;fill-opacity:1;stroke:none;stroke-width:1.05833" />
      <path
          d="m 13.493749,8.2020695 c -2.191882,0 -3.9687498,1.776825 -3.9687498,3.9687505 0,0.898895 0.306547,1.715876 0.8102818,2.38125 -1.2927118,0.96302 -2.1331978,2.490258 -2.1331978,4.233333 0,2.931583 2.3600828,5.291666 5.2916658,5.291666 2.931583,0 5.291667,-2.360083 5.291667,-5.291666 0,-1.743075 -0.840486,-3.270313 -2.133209,-4.233333 0.503746,-0.665374 0.810292,-1.482355 0.810292,-2.38125 0,-2.1919255 -1.776867,-3.9687505 -3.96875,-3.9687505 z m 0,2.6458335 c 0.730621,0 1.322917,0.592296 1.322917,1.322917 0,0.73061 -0.592296,1.322916 -1.322917,1.322916 -0.73062,0 -1.322916,-0.592306 -1.322916,-1.322916 0,-0.730621 0.592296,-1.322917 1.322916,-1.322917 z m -0.264583,5.291656 c 0.08911,-0.0095 0.172963,0 0.264583,0 1.465792,0 2.645833,1.180042 2.645833,2.645844 0,1.465792 -1.180041,2.645833 -2.645833,2.645833 -1.465791,0 -2.645833,-1.180041 -2.645833,-2.645833 0,-1.374193 1.043834,-2.510843 2.38125,-2.645844 z"
          id="rect3163-52-9-8-1-1-2-7-3-6-4-6-1-8-8-2-1"
          style="fill:#ffffff;fill-opacity:1;stroke:none;stroke-width:1.05833" />
      <path
          d="m 50.535415,87.577068 c -2.191883,0 -3.96875,-1.77683 -3.96875,-3.96875 0,-0.8989 0.306546,-1.71588 0.810281,-2.38125 -1.292712,-0.96302 -2.133198,-2.49026 -2.133198,-4.23333 0,-2.93159 2.360084,-5.29167 5.291667,-5.29167 2.931583,0 5.291666,2.36008 5.291666,5.29167 0,1.74307 -0.840486,3.27031 -2.133208,4.23333 0.503745,0.66537 0.810292,1.48235 0.810292,2.38125 0,2.19192 -1.776868,3.96875 -3.96875,3.96875 z m 0,-2.64583 c 0.73062,0 1.322916,-0.5923 1.322916,-1.32292 0,-0.73061 -0.592296,-1.32292 -1.322916,-1.32292 -0.730621,0 -1.322917,0.59231 -1.322917,1.32292 0,0.73062 0.592296,1.32292 1.322917,1.32292 z m -0.264584,-5.29166 c 0.08911,0.01 0.172964,0 0.264584,0 1.465791,0 2.645833,-1.18004 2.645833,-2.64584 0,-1.4658 -1.180042,-2.64584 -2.645833,-2.64584 -1.465792,0 -2.645834,1.18004 -2.645834,2.64584 0,1.37419 1.043835,2.51084 2.38125,2.64584 z"
          id="rect3163-52-9-8-1-1-2-7-3-6-4-6-1-8-8-2-1-1"
          style="fill:#ffffff;fill-opacity:1;stroke:none;stroke-width:1.05833" />
     </g>
    <g id="nine">
      <path
        d="m 32.014581,32.014569 c -5.845016,0 -10.583333,4.738317 -10.583333,10.583333 0,5.845016 4.738317,10.583336 10.583333,10.583336 1.922992,0 3.737578,-0.52572 5.291666,-1.42214 v 1.42214 c 0,2.9225 -2.369163,5.29166 -5.291666,5.29166 -2.068258,0 -3.825981,-1.21395 -4.696354,-2.94349 l -4.7625,2.38125 c 1.734894,3.47595 5.309933,5.85391 9.458854,5.85391 5.845016,0 10.583333,-4.73832 10.583333,-10.58333 V 42.597902 c 0,-5.845016 -4.738317,-10.583333 -10.583333,-10.583333 z m 0,5.291667 c 2.922503,0 5.291666,2.369163 5.291666,5.291666 0,2.922506 -2.369163,5.291666 -5.291666,5.291666 -2.922503,0 -5.291667,-2.36916 -5.291667,-5.291666 0,-2.922503 2.369164,-5.291666 5.291667,-5.291666 z m -5.291667,27.516662 v 2.11667 h 10.583333 v -2.11667 z"
        id="path3962-5-8"
        style="fill:#ff5555;fill-opacity:1;fill-rule:evenodd;stroke:none;stroke-width:1.05833" />
      <path
        d="m 13.493748,24.07708 c 2.922514,0 5.291667,-2.369174 5.291667,-5.291677 v -5.291645 c 0,-2.922514 -2.369153,-5.2916775 -5.291667,-5.2916775 -2.922502,0 -5.291666,2.3691635 -5.291666,5.2916775 0,2.922492 2.369164,5.291645 5.291666,5.291645 0.961496,0 1.868795,-0.262858 2.645833,-0.711062 v 0.711062 c 0,1.461251 -1.184581,2.645833 -2.645833,2.645833 -1.034118,0 -1.91299,-0.606965 -2.348166,-1.471739 l -2.38125,1.190625 c 0.867431,1.737973 2.654956,2.926958 4.729416,2.926958 z m 0,-7.9375 c -1.461241,0 -2.645822,-1.184571 -2.645822,-2.645822 0,-1.461252 1.184581,-2.645844 2.645822,-2.645844 1.461252,0 2.645833,1.184592 2.645833,2.645844 0,1.461251 -1.184581,2.645822 -2.645833,2.645822 z"
        id="path3962-5-6-2-1-9"
        style="fill:#ffffff;fill-opacity:1;fill-rule:evenodd;stroke:none;stroke-width:1.05833" />
      <path
        d="m 50.535414,71.702058 c -2.922514,0 -5.291667,2.36917 -5.291667,5.29168 v 5.29164 c 0,2.92252 2.369153,5.29168 5.291667,5.29168 2.922502,0 5.291666,-2.36916 5.291666,-5.29168 0,-2.92249 -2.369164,-5.29164 -5.291666,-5.29164 -0.961496,0 -1.868795,0.26285 -2.645834,0.71106 v -0.71106 c 0,-1.46125 1.184582,-2.64584 2.645834,-2.64584 1.034118,0 1.91299,0.60697 2.348166,1.47174 l 2.38125,-1.19062 c -0.867431,-1.73798 -2.654956,-2.92696 -4.729416,-2.92696 z m 0,7.9375 c 1.461241,0 2.645822,1.18457 2.645822,2.64582 0,1.46125 -1.184581,2.64585 -2.645822,2.64585 -1.461252,0 -2.645834,-1.1846 -2.645834,-2.64585 0,-1.46125 1.184582,-2.64582 2.645834,-2.64582 z"
        id="path3962-5-6-2-1-8-7"
        style="fill:#ffffff;fill-opacity:1;fill-rule:evenodd;stroke:none;stroke-width:1.05833" />
    </g>
    <g id="skipMove">
      <path
        d="m 32.047656,32.014613 c -4.062762,-0.0053 -8.140964,1.534488 -11.244791,4.630208 -6.207654,6.191482 -6.224514,16.248858 -0.03302,22.456508 6.191482,6.20766 16.248855,6.22451 22.456509,0.033 6.20765,-6.19148 6.22451,-16.248854 0.03302,-22.456508 -3.095741,-3.103827 -7.148956,-4.657979 -11.211718,-4.663281 z m -0.03302,5.291666 c 1.851956,0.0021 3.712337,0.486929 5.357812,1.455208 L 22.886511,53.247429 c -2.392203,-4.061687 -1.838124,-9.382659 1.653646,-12.865369 2.069222,-2.063824 4.765971,-3.079305 7.474479,-3.075781 z m 9.128125,5.192448 c 2.408734,4.064772 1.845087,9.408792 -1.653646,12.898432 -3.495358,3.48625 -8.808392,3.99868 -12.865364,1.5875 z"
        id="path5897-6-5"
        style="fill:#ff5555;fill-opacity:1;fill-rule:evenodd;stroke:none;stroke-width:1.05833" />
      <path
        d="m 16.156072,8.2020713 c -2.030994,-0.0032 -4.069715,0.767175 -5.621337,2.3148917 -3.1032342,3.095445 -3.1116592,8.123672 -0.01651,11.227213 3.095159,3.10353 8.12292,3.111965 11.226165,0.01651 3.103234,-3.095445 3.111669,-8.123671 0.01651,-11.227202 C 20.213309,8.9817033 18.187099,8.2047063 16.156072,8.2020503 Z m -0.01651,2.6455997 c 0.925799,10e-4 1.85583,0.243428 2.678409,0.72752 l -7.241614,7.242302 c -1.195895,-2.030656 -0.918898,-4.690893 0.826664,-6.432085 1.034426,-1.031822 2.382541,-1.539515 3.736541,-1.537737 z m 4.563216,2.595965 c 1.20414,2.032212 0.922369,4.703974 -0.826675,6.448626 -1.74735,1.742969 -4.403375,1.99916 -6.431481,0.793676 z"
        id="path5897-6-8-2"
        style="fill:#ffffff;fill-opacity:1;fill-rule:evenodd;stroke:none;stroke-width:1.05833" />
      <path
        d="m 47.906071,71.702069 c -2.030994,-0.003 -4.069715,0.76718 -5.621337,2.31489 -3.103234,3.09545 -3.111659,8.12367 -0.01651,11.22721 3.095159,3.10354 8.12292,3.11197 11.22616,0.0165 3.10324,-3.09544 3.11167,-8.12367 0.0165,-11.2272 -1.54759,-1.55178 -3.5738,-2.32877 -5.604823,-2.33143 z m -0.01651,2.6456 c 0.925799,0.001 1.855833,0.24343 2.678413,0.72752 l -7.241618,7.2423 c -1.195895,-2.03065 -0.918898,-4.69089 0.826664,-6.43208 1.034426,-1.03182 2.382541,-1.53952 3.736541,-1.53774 z m 4.563213,2.59596 c 1.20414,2.03222 0.92237,4.70398 -0.82667,6.44863 -1.74735,1.74297 -4.403377,1.99916 -6.431483,0.79368 z"
        id="path5897-6-8-5"
        style="fill:#ffffff;fill-opacity:1;fill-rule:evenodd;stroke:none;stroke-width:1.05833" />
    </g>
    <g id="reverseTurn">
      <path
        d="m 32.014581,30.691653 2.645833,2.645833 -10.583333,10.583332 c -2.645833,2.64583 -2.645833,7.9375 0,10.58333 l 5.291667,-5.29166 10.583333,-10.583336 2.645833,2.645836 V 30.691653 Z"
        id="path5973-41"
        style="fill:#ff5555;stroke:none;stroke-width:1.05833" />
      <path
        d="m 32.014581,65.087488 -2.645833,-2.64584 10.583333,-10.58333 c 2.645833,-2.64583 2.645833,-7.9375 0,-10.58333 l -5.291667,5.29166 -10.583333,10.58334 -2.645833,-2.64584 v 10.58334 z"
        id="path5973-4-6"
        style="fill:#ff5555;stroke:none;stroke-width:1.05833" />
      <path
        d="m 13.493748,8.2020593 1.322917,1.322917 -5.2916669,5.2916657 c -1.322916,1.322917 -1.322916,3.96875 0,5.291667 l 2.6458339,-2.645833 5.291666,-5.291667 1.322917,1.322917 V 8.2020593 Z"
        id="path5973-6-5"
        style="fill:#ffffff;stroke:none;stroke-width:1.05833" />
      <path
        d="m 13.493748,25.399975 -1.322916,-1.322916 5.291666,-5.291667 c 1.322917,-1.322916 1.322917,-3.96875 0,-5.291666 l -2.645833,2.645833 -5.2916669,5.291667 -1.322916,-1.322917 v 5.291666 z"
        id="path5973-4-3-5"
        style="fill:#ffffff;stroke:none;stroke-width:1.05833" />
      <path
        d="m 50.535414,70.379138 1.322916,1.32292 -5.291666,5.29167 c -1.322917,1.32291 -1.322917,3.96875 0,5.29166 l 2.645833,-2.64583 5.291667,-5.29167 1.322916,1.32292 v -5.29167 z"
        id="path5973-6-5-2"
        style="fill:#ffffff;stroke:none;stroke-width:1.05833" />
      <path
        d="m 50.535414,87.577058 -1.322917,-1.32292 5.291667,-5.29166 c 1.322916,-1.32292 1.322916,-3.96875 0,-5.29167 l -2.645834,2.64583 -5.291666,5.29167 -1.322917,-1.32292 v 5.29167 z"
        id="path5973-4-3-5-8"
        style="fill:#ffffff;stroke:none;stroke-width:1.05833" />
    </g>
    <g id="plusTwo">
      <rect
        width="15.874999"
        height="24.76539"
        rx="2.6458333"
        ry="2.4847546"
        x="33.602139"
        y="41.550755"
        transform="matrix(1,0,-0.27472185,0.96152374,0,0)"
        id="rect6095-5-1-9"
        style="fill:#ffffff;fill-opacity:1;fill-rule:evenodd;stroke:#000000;stroke-width:0.53965;stroke-miterlimit:4;stroke-dasharray:none" />
      <rect
        width="10.583333"
        height="19.261961"
        rx="2.6458199"
        ry="2.4847422"
        x="36.247974"
        y="44.302525"
        transform="matrix(1,0,-0.27472185,0.96152374,0,0)"
        id="rect6097-3-5-4"
        style="fill:#ff5555;fill-opacity:1;fill-rule:evenodd;stroke:none;stroke-width:1.05833" />
      <rect
        width="15.874999"
        height="24.76539"
        rx="2.6458333"
        ry="2.4847546"
        x="41.917522"
        y="33.295635"
        transform="matrix(1,0,-0.27472185,0.96152374,0,0)"
        id="rect6095-1-9-4"
        style="fill:#ffffff;fill-opacity:1;fill-rule:evenodd;stroke:#000000;stroke-width:0.53965;stroke-miterlimit:4;stroke-dasharray:none" />
      <rect
        width="10.583333"
        height="19.261961"
        rx="2.6458199"
        ry="2.4847422"
        x="44.563358"
        y="36.047405"
        transform="matrix(1,0,-0.27472185,0.96152374,0,0)"
        id="rect6097-8-08-8"
        style="fill:#ff5555;fill-opacity:1;fill-rule:evenodd;stroke:none;stroke-width:1.05833" />
      <path
        d="m 9.260417,13.493709 v 2.645854 H 6.614583 v 2.645791 h 2.645834 v 2.645854 h 2.645833 v -2.645854 h 2.645833 V 16.139563 H 11.90625 v -2.645854 z"
        id="rect5649-4-2-7-6-2"
        style="fill:#ffffff;fill-opacity:1;fill-rule:evenodd;stroke:none;stroke-width:1.05833" />
      <path
        d="m 21.431249,8.2020626 c -2.931583,0 -5.291666,2.3600844 -5.291666,5.2916674 v 0.529166 h 2.645833 V 13.49373 c 0,-1.465792 1.180042,-2.645833 2.645833,-2.645833 1.465792,0 2.645834,1.180041 2.645834,2.645833 0,0.596635 -0.495046,1.767491 -1.01201,2.174356 -2.807124,2.209239 -2.77749,1.844379 -6.92549,4.70481 v 3.704167 h 5.291666 5.291667 V 21.43123 20.372896 h -2.645833 v 1.058334 h -2.645834 -2.116666 c 3.275573,-2.3065 3.515095,-2.250599 6.081755,-4.547521 0.822367,-0.735944 1.326578,-2.196603 1.326578,-3.389979 0,-2.931583 -2.360083,-5.2916674 -5.291667,-5.2916674 z"
        id="rect3163-52-9-8-1-1-2-7-3-6-0-9-5-9-2-20-7"
        style="fill:#ffffff;fill-opacity:1;stroke:none;stroke-width:1.05833" />
      <path
        d="m 54.768748,82.285534 v -2.64584 h 2.645834 v -2.64572 h -2.645834 v -2.64594 h -2.645833 v 2.64594 h -2.645833 v 2.64572 h 2.645833 v 2.64584 z"
        id="rect5649-4-2-7-0-2-2"
        style="fill:#ffffff;fill-opacity:1;fill-rule:evenodd;stroke:none;stroke-width:1.05833" />
      <path
        d="m 42.597915,87.577194 c 2.931584,0 5.291667,-2.36008 5.291667,-5.29166 v -0.52917 h -2.645833 v 0.52917 c 0,1.46579 -1.180042,2.64583 -2.645834,2.64583 -1.465791,0 -2.645833,-1.18004 -2.645833,-2.64583 0,-0.59658 0.495046,-1.76742 1.01201,-2.17435 2.807124,-2.20916 2.77749,-1.84436 6.92549,-4.70482 v -3.70417 h -5.291667 -5.291666 v 2.64584 1.05833 h 2.645833 v -1.05833 h 2.645833 2.116667 c -3.275573,2.30653 -3.515095,2.25065 -6.081755,4.54755 -0.822367,0.73597 -1.326578,2.19657 -1.326578,3.38995 0,2.93158 2.360083,5.29166 5.291666,5.29166 z"
        id="rect3163-52-9-8-1-1-2-7-3-6-0-9-5-9-2-2-8-5"
        style="fill:#ffffff;fill-opacity:1;stroke:none;stroke-width:1.05833" />
    </g>
  </g>
</svg>