<svg
   xmlns="http://www.w3.org/2000/svg"
   version="1.1"
   width="500"
   height="500">
      <rect width="120" height="180" rx="10" ry="10" x="0" y="0" id="rect2987-1" style="fill:#ffffff;fill-opacity:1;fill-rule:evenodd;stroke:#000000;stroke-width:0.5;stroke-miterlimit:4;stroke-dasharray:none"/>
      <rect width="100" height="160" rx="10" ry="10" x="10" y="10" id="rect3757-5" style="fill:#ff5555;fill-opacity:1;fill-rule:evenodd;stroke:none"/>
      <path d="m 110,85 c 18,9 97,74 120,120 5,10 104,67 30,30 18,9 40,-17.9 40,-40 0,-5.52 -4.47,-10 -10,-10 z" id="path3773-0-4-8-4-2" style="fill:#ffffff;fill-opacity:1;fill-rule:evenodd;stroke:none"/>
      <path d="m 90,90 c 104,52 24,18 30,30 l 10,20 c 5,10 104,67 30,30 104,52 10,-4.47 10,-10 l 0,-10 c 0,-5.52 -4.47,-10 -10,-10 z m 5,10 c 152,76 12,9 15,15 l 10,20 c 2,4 51,33 15,15 152,76 -5,-2.23 -5,-5 l 0,-10 c 0,-2.76 2.23,-5 5,-5 z" id="path3962-7" style="fill:#ff5555;fill-opacity:1;fill-rule:evenodd;stroke:none"/>
      <path d="m 21,27 c 152,76 12,9 15,15 l 5,10 c 2,4 51,33 15,15 152,76 5,-2.23 5,-5 l 0,-5 c 0,-2.76 -2.23,-5 -5,-5 z m 2,4 c 76,38 11,7 12,9 l 5,10 c 1,2 24,15 12,9 76,38 -2.5,-1.11 -2.5,-2.5 l 0,-5 c 0,-1.38 1.11,-2.5 2.5,-2.5 z" id="path3962-7-1" style="fill:#ffffff;fill-opacity:1;fill-rule:evenodd;stroke:none"/>
      <path d="m 69,123 c 152,76 12,9 15,15 l 5,10 c 2,4 51,33 15,15 152,76 5,-2.23 5,-5 l 0,-5 c 0,-2.76 -2.23,-5 -5,-5 z m 2,4 c 76,38 11,7 12,9 l 5,10 c 1,2 24,15 12,9 76,38 -2.5,-1.11 -2.5,-2.5 l 0,-5 c 0,-1.38 1.11,-2.5 2.5,-2.5 z" id="path3962-7-1-2" style="fill:#ffffff;fill-opacity:1;fill-rule:evenodd;stroke:none"/>
</svg>